<?xml version="1.0" encoding="UTF-8" standalone="no"?>
<!-- Created with Inkscape (http://www.inkscape.org/) -->

<svg
   width="210mm"
   height="297mm"
   viewBox="0 0 210 297"
   version="1.1"
   id="svg1"
   xml:space="preserve"
   inkscape:version="1.4 (86a8ad7, 2024-10-11)"
   sodipodi:docname="Atividade Programação - Logo Anime.svg"
   xmlns:inkscape="http://www.inkscape.org/namespaces/inkscape"
   xmlns:sodipodi="http://sodipodi.sourceforge.net/DTD/sodipodi-0.dtd"
   xmlns="http://www.w3.org/2000/svg"
   xmlns:svg="http://www.w3.org/2000/svg"><sodipodi:namedview
     id="namedview1"
     pagecolor="#ffffff"
     bordercolor="#000000"
     borderopacity="0.25"
     inkscape:showpageshadow="2"
     inkscape:pageopacity="0.0"
     inkscape:pagecheckerboard="0"
     inkscape:deskcolor="#d1d1d1"
     inkscape:document-units="mm"
     inkscape:zoom="1.0167041"
     inkscape:cx="457.36021"
     inkscape:cy="682.10603"
     inkscape:window-width="1920"
     inkscape:window-height="1009"
     inkscape:window-x="-8"
     inkscape:window-y="-8"
     inkscape:window-maximized="1"
     inkscape:current-layer="layer1"
     showgrid="false" /><defs
     id="defs1"><rect
       x="175.56731"
       y="727.84207"
       width="439.84519"
       height="272.85743"
       id="rect47" /></defs><g
     inkscape:groupmode="layer"
     id="layer2"
     inkscape:label="Formatos"
     style="display:inline;fill:#ff00ff"><g
       id="g45"
       inkscape:label="TV"><rect
         style="fill:#ff00ff;stroke-width:0.264583"
         id="rect2"
         width="124.13271"
         height="91.863411"
         x="39.816154"
         y="89.261055"
         rx="10.149217" /><path
         style="fill:#800080;stroke-width:0.264583"
         id="path33"
         transform="scale(1,-1)"
         sodipodi:type="arc"
         sodipodi:cx="103.89935"
         sodipodi:cy="-176.44023"
         sodipodi:rx="2.9276583"
         sodipodi:ry="2.8625994"
         sodipodi:start="0"
         sodipodi:end="5.8299811"
         sodipodi:open="true"
         sodipodi:arc-type="arc"
         d="m 106.82701,-176.44023 a 2.9276583,2.8625994 0 0 1 -2.59666,2.84424 2.9276583,2.8625994 0 0 1 -3.18381,-2.20111 2.9276583,2.8625994 0 0 1 1.87674,-3.34195 2.9276583,2.8625994 0 0 1 3.60818,1.44543" /><rect
         style="fill:#800080;stroke-width:0.264583"
         id="rect1"
         width="106.17641"
         height="76.769714"
         x="49.444904"
         y="95.506721"
         ry="20.298433" /></g></g><g
     inkscape:label="Rosto Desenho"
     inkscape:groupmode="layer"
     id="layer1"
     style="display:none"
     transform="matrix(0.94630132,0,0,0.63065676,7.2677463,68.377548)"><path
       style="fill:#d40000;stroke-width:0.264583"
       d="m 111.51301,69.189591 c -9.01673,12.881041 -8.6487,6.256504 -11.776951,18.21747 -3.128253,11.960968 -2.576208,12.328998 -3.312268,11.960968 -0.73606,-0.36803 -2.760223,-15.457249 -2.760223,-15.457249 l 4.600371,-10.304833 c 0,0 -1.288103,-2.392193 -3.680296,2.208178 -2.392193,4.600372 -2.392193,11.592936 -2.392193,11.592936 l 4.600371,-11.04089 -7.91264,21.897768 1.656133,1.47212 -5.336431,-11.776953 2.760223,7.54461 0.184015,7.728624 12.697029,34.22677 -8.280673,-13.6171 c 0,0 3.496284,4.04832 3.496284,5.70446 0,1.65613 0.552045,16.92936 0.552045,16.92936 l -1.656135,-8.83271 -0.368028,15.08922 -12.513011,-26.13011 6.808549,16.19331 -3.312268,-4.41636 1.10409,5.15242 -2.208178,-4.96841 0.368028,3.31227 -2.392193,-5.15241 -1.104088,4.9684 -1.472121,-3.49629 -0.184015,2.76023 -1.104087,-2.94424 1.840148,3.86431 -4.968402,-5.70446 0.552045,4.04833 -2.208178,-4.41636 -1.10409,-4.9684 0.184015,7.17658 -1.288103,-7.17658 -2.760223,5.52045 1.840148,-10.30484 -8.832712,-20.24163 -2.392196,-15.273236 3.496283,-10.672863 6.440522,-11.224905 9.016728,-6.256507 43.979556,0.36803 11.2249,7.360595 4.60037,6.808552 2.20818,6.808549 -5.15241,-9.384757 -8.28067,-6.440522 7.17658,7.544609 2.94424,6.992565 1.2881,6.440521 -0.36803,6.07249 -2.57621,-7.728622 -3.12825,-7.176582 1.84015,7.176582 0.92007,8.280667 -3.86431,12.697024 -0.18401,-9.016726 -1.10409,-6.256507 -2.57621,6.072492 -1.10409,-9.568772 -0.73606,-3.496284 -2.20818,9.016728 -1.84015,0.184015 0.73606,-5.336432 -0.73606,-6.808549 -1.10409,-3.864311 -1.47212,7.176579 -3.49628,7.91264 -5.33643,5.336431 2.57621,-8.832715 1.10409,-7.544609 0.36803,-9.936803 -3.12826,6.440519 -1.10408,4.784389 -1.28811,6.80855 -0.55204,3.496283 -0.36803,-10.856878 1.2881,-5.704461 2.20818,-7.728625 z"
       id="path1" /><path
       style="fill:#d40000;stroke-width:0.264583"
       d="m 126.2342,122.00186 1.65613,27.2342 -2.02416,-11.40892 -1.2881,11.2249 -3.12826,9.56878 -3.86431,-16.19331 0.73606,10.12082 -3.31227,-14.16915 -3.49628,0.92008 0.55205,4.9684 -1.65614,-3.31227 -0.92007,6.44052 -1.28811,-5.15242 0.18402,4.9684 -1.28811,-2.39219 -0.92007,3.49628 1.47212,-9.9368 6.07249,1.10409 3.6803,-2.76022 z"
       id="path2" /><path
       style="fill:#d40000;stroke-width:0.264583"
       d="m 125.49814,87.223049 -1.10409,5.888474 1.2881,6.256506 0.36803,3.128251 1.84015,2.94424 -1.84015,-1.10409 -0.55204,1.10409 0.55204,9.75279 0.18402,-8.6487 0.73606,-0.18402 2.02416,-4.41635 1.10409,-8.832717 z"
       id="path3" /><path
       style="fill:#e9c6af;fill-opacity:1;stroke-width:0.264583"
       d="m 111.14498,70.477694 -9.38476,13.985131 -4.600369,11.776951 -0.184015,4.416354 -1.84015,-4.048324 -1.288103,-11.960966 -3.128254,9.384758 v 6.072492 l -1.104087,1.84015 -2.024166,-8.648702 2.944238,14.353162 7.360595,21.34572 4.968401,9.9368 8.46468,-0.18401 4.60038,0.36803 11.04089,-18.03346 0.18401,-3.86431 -0.36803,-2.20818 -1.65613,-3.31226 0.55204,-4.23235 0.36803,-4.9684 -0.73606,-4.968401 -0.73605,-4.600372 0.73605,-3.312265 -2.39219,5.704459 h -2.02416 l 0.92007,-5.704459 -1.2881,-8.832715 -3.12825,11.224908 -6.44053,7.728624 h -1.47211 l 1.47211,-6.624536 1.65614,-3.680296 0.92007,-14.169147 -3.12825,6.992565 -1.47212,7.912639 -1.10409,6.624537 -0.36803,-9.38476 -0.18401,-5.336429 z"
       id="path4" /><path
       style="fill:#d40000;fill-opacity:1;stroke-width:0.264583"
       d="m 92.559477,75.078065 c -0.368027,0.184015 -0.771318,0.310031 -1.104087,0.552045 -0.994371,0.723178 -2.02845,1.96854 -2.760224,2.944239 -0.26539,0.353853 -0.452895,0.764291 -0.73606,1.104087 -0.03927,0.04712 -0.245353,0 -0.184015,0 0.90084,0 0.878946,0.06461 2.024163,-0.552042 0.345813,-0.186206 0.587018,-0.527899 0.920075,-0.73606 0.851141,-0.531964 1.832296,-0.728205 2.576209,-1.472118"
       id="path5" /><path
       style="fill:#d40000;fill-opacity:1;stroke-width:0.264583"
       d="m 99.184014,73.973977 c -0.552045,0.368031 -1.149646,0.675521 -1.656135,1.104088 -0.299823,0.253699 -0.458338,0.642356 -0.736058,0.920075 -0.277722,0.27772 -0.65914,0.442511 -0.920075,0.736061 -0.459933,0.517424 -0.791266,1.343308 -1.288103,1.840148 -0.04337,0.04337 -0.129154,-0.02743 -0.184015,0 -0.232765,0.116382 -0.36803,0.36803 -0.552045,0.552045 -0.298437,0.298434 -0.558205,0.923152 -0.920076,1.104088 -0.580427,0.290216 -1.25972,0.445846 -1.840147,0.73606 -0.434227,0.217114 -3.864311,2.019974 -3.864311,2.576208"
       id="path6" /><path
       style="fill:#d40000;fill-opacity:1;stroke-width:0.264583"
       d="m 94.031598,70.109664 c -1.103686,-0.207714 -1.221579,0.791694 -1.840148,1.47212 -0.408461,0.449305 -0.899374,0.821627 -1.288106,1.288103 -0.834424,1.00131 -1.188582,2.327407 -1.656132,3.496284 -0.152818,0.382039 -0.446024,0.706511 -0.552046,1.104087 -0.335536,1.258263 -0.184015,2.757514 -0.184015,4.048329 0,1.903333 -0.255259,4.153667 0.736061,5.888474 0.08607,0.150633 0.290441,0.212855 0.36803,0.36803 0.05486,0.109725 -0.06805,0.265957 0,0.36803 0.07608,0.114123 0.271044,0.08703 0.368027,0.184015 0.04337,0.04337 -0.01939,0.125826 0,0.184015 0.157583,0.472747 0.136843,0.712473 0.552045,0.920076 0.468654,0.234325 0.889537,-0.521507 1.104091,-0.736061 0.04337,-0.04337 0.140642,0.04337 0.184015,0 0.04337,-0.04337 -0.02743,-0.129153 0,-0.184015 0.05183,-0.103661 0.615563,-0.491797 0.736057,-0.552045 0.05486,-0.02743 0.156586,0.05486 0.184015,0 0.05486,-0.109725 -0.03879,-0.251648 0,-0.36803 0.141889,-0.425662 0.157729,-0.04381 0.368031,-0.184015 0.184864,-0.12324 0.615156,-0.738719 0.73606,-0.920073 0.107564,-0.161345 -0.06254,-0.548449 0,-0.73606 0.133503,-0.400508 0.221406,-0.897104 0.36803,-1.288103 0.321678,-0.857808 0.80387,-1.830607 0.920073,-2.760223 0.04565,-0.365188 -0.08926,-0.747048 0,-1.10409 0.113299,-0.453192 0.450709,-0.832088 0.552045,-1.288103 0.06653,-0.299389 -0.03387,-0.61526 0,-0.920075 0.02793,-0.251357 0.148248,-0.485699 0.184015,-0.736061 0.123446,-0.864118 -0.02183,-1.431607 0.184015,-2.392193 0.368125,-1.717913 0.326017,-0.483981 0.552045,-1.840148 0.0586,-0.351583 -0.08606,-0.759838 0,-1.10409 0.227388,-0.90955 0.184015,0.385093 0.184015,-0.368028"
       id="path7" /><path
       style="fill:#d40000;fill-opacity:1;stroke-width:0.264583"
       d="m 100.65613,71.949814 c -0.48966,1.250657 0.19587,2.591187 0,3.864311 -0.22071,1.434619 -0.25914,1.03277 -0.920071,2.024163 -0.22648,0.33972 -0.325567,0.764371 -0.552045,1.104091 -0.589113,0.883668 -2.849512,2.102249 -3.864313,2.392193 -0.516168,0.147476 -3.80841,0.365599 -3.864311,0.36803 -0.190172,0.0083 -3.404706,0.229804 -3.864314,0 -0.02223,-0.01111 0,-0.687311 0,-0.920075 0,-0.858737 0,-1.717471 0,-2.576208 0,-3.382087 4.421764,-5.08372 6.992567,-6.072492 0.05725,-0.02201 0.122677,0 0.184015,0 0.245351,-0.06134 0.501243,-0.09009 0.736058,-0.184013 0.36059,-0.144237 0.477491,-0.36803 0.920075,-0.36803"
       id="path8" /><path
       style="fill:#d40000;fill-opacity:1;stroke-width:0.264583"
       d="m 92.559477,85.014868 c -0.0089,0.499181 -0.08273,1.49067 0.184015,2.024166 0.155049,0.310096 0.425405,0.356137 0.552046,0.736057 0.174233,0.5227 0.353798,1.127474 0.552045,1.656136 0.09632,0.256847 0.226896,0.500837 0.36803,0.736057 0.04463,0.07439 0.167002,0.09895 0.184015,0.184015 0.04812,0.240589 -0.0347,0.493173 0,0.736061 0.06581,0.460705 0.387104,0.875757 0.552043,1.288102 0.374811,0.93703 0.184015,2.30523 0.184015,3.312269 0,0.330321 -0.06069,4.171653 0,4.232341 0.04337,0.04337 0.140641,-0.04337 0.184015,0 0.07019,0.07019 0.04805,0.848008 0.36803,0.368028 0.107595,-0.16139 0.08422,-0.385716 0.184015,-0.552041 0.291311,-0.485518 0.500994,-0.516427 0.73606,-1.10409 0.04556,-0.113903 -0.03879,-0.251648 0,-0.36803 0.02743,-0.08229 0.122677,-0.122677 0.184015,-0.184015 0.06134,-0.122677 0.150749,-0.234969 0.184015,-0.36803 0.02975,-0.119012 -0.05486,-0.258305 0,-0.368028 0.07759,-0.155175 0.290441,-0.212857 0.36803,-0.36803 0.272405,-0.544814 0.468641,-1.624356 0.552043,-2.208178 0.120822,-0.845746 -0.269714,-1.95108 0,-2.760223 0.07997,-0.239927 0.09009,-0.501245 0.184015,-0.73606 0.08214,-0.205341 0.298093,-0.342236 0.36803,-0.552046 0.07326,-0.219773 -0.115602,-0.872884 0,-1.104087 0.02743,-0.05486 0.140642,0.04337 0.184015,0 0.207476,-0.207479 0.119949,-0.856009 0.36803,-1.104091 0.04337,-0.04337 0.136118,0.03832 0.184015,0 0.5876,-0.470082 0.846256,-0.791159 1.472116,-1.10409 0.2963,-0.148148 0.80314,-0.18746 1.10409,-0.368027 0.14877,-0.08926 0.21286,-0.290444 0.36803,-0.368031 0.10973,-0.05486 0.25831,0.05486 0.36803,0 0.0549,-0.02743 -0.0274,-0.129153 0,-0.184015 0.4906,-0.981202 -0.0888,0.349012 0.36803,-0.184015 0.64777,-0.755734 1.12899,-1.86505 1.84015,-2.576208 0.21686,-0.216863 0.5192,-0.335182 0.73606,-0.552045 0.64513,-0.645128 0.92903,-1.668079 1.47212,-2.392193 0.74998,-0.999977 1.82432,-1.757707 2.57621,-2.760224 0.16458,-0.21945 0.21587,-0.507817 0.36803,-0.73606 0.0962,-0.144351 0.29044,-0.212854 0.36802,-0.368027 0.23981,-0.479605 0.34092,-1.149416 0.55205,-1.656136 0.44596,-1.070303 1.04202,-2.052997 1.47212,-3.128253 0.0821,-0.205338 0.29809,-0.342233 0.36803,-0.552043 0.14412,-0.432358 0.15213,-0.856308 0.36803,-1.288105"
       id="path9" /><path
       style="fill:#d40000;fill-opacity:1;stroke-width:0.264583"
       d="m 107.28067,66.061338 c -0.0613,0.552045 -0.0493,1.117274 -0.18402,1.656133 -0.1133,0.453191 -0.40432,0.844939 -0.55204,1.288105 -0.23876,0.71627 0,3.800655 0,4.784386 0,0.781236 -0.22585,2.042962 0.18401,2.760224 0.45943,0.804005 0.86666,0.736057 1.65614,0.736057 0.47338,0 1.01027,0.09237 1.47212,0 1.14634,-0.229269 3.21004,-1.737923 4.04832,-2.576208"
       id="path10" /><path
       style="fill:#d40000;fill-opacity:1;stroke-width:0.264583"
       d="m 100.47212,67.901486 c 0.9624,2.356638 1.88861,4.614955 3.49628,6.624537 0.13816,0.172693 0.39566,0.211645 0.55205,0.368027 0.097,0.09699 0.0699,0.291949 0.18401,0.36803 0.10207,0.06805 0.2463,-0.01521 0.36803,0 0.37022,0.04628 0.73606,0.122677 1.10409,0.184015 3.24608,0.541015 5.25791,0.409988 8.46468,-0.552045 0.32101,-0.0963 1.83099,-0.437139 2.02417,-0.920073 0.0939,-0.234815 0.0813,-0.504952 0.18401,-0.73606 0.14526,-0.326834 0.4653,-0.573093 0.55205,-0.920075 0.0267,-0.106672 0.0824,-3.924718 0,-4.048326 -0.31228,-0.468413 -1.43322,-0.348575 -1.84015,-0.552045 -1.30769,-0.653841 -1.45026,-0.347327 -2.57621,-0.552045 -0.38168,-0.0694 -0.72476,-0.286745 -1.10409,-0.368028 -0.72609,-0.155593 -1.67161,-0.0039 -2.39219,-0.184015 -0.62094,-0.155234 -1.17576,-0.184015 -1.84015,-0.184015"
       id="path11" /><path
       style="fill:#d40000;fill-opacity:1;stroke-width:0.264583"
       d="m 87.775091,87.775091 c 0.692002,1.403435 0.623655,2.934261 0.920075,4.416359 0.07078,0.353872 -0.07078,0.750213 0,1.104088 0.0269,0.134493 0.161468,0.23274 0.184015,0.36803 0.219483,1.3169 -0.316939,2.964585 0,4.232341 0.02103,0.08416 0.156584,0.101722 0.184016,0.184015 0.129484,0.388453 0.02649,0.815533 0.184015,1.288105 0.234973,0.704931 -0.181949,1.476251 0.184015,2.208181 0.245353,0.4907 -0.245354,1.34944 0,1.84015 0.02743,0.0549 0.140642,-0.0434 0.184015,0 0.05498,0.055 -0.0059,0.71236 0,0.73606 0.06653,0.26612 0.281284,0.47582 0.368027,0.73606 0.137158,0.41147 0.06486,0.87106 0.184015,1.2881 0.03529,0.12351 0.323689,0.7427 0.36803,0.92007 0.04463,0.17852 -0.08229,0.38746 0,0.55205 0.17934,0.35868 0.386549,0.69035 0.552046,1.10409 0.122089,0.30522 0.185359,1.01409 0.36803,1.2881 0.327136,0.49071 0.06091,-0.73734 0.36803,0.18401 0.03879,0.11639 -0.0388,0.25166 0,0.36803 0.04932,0.14797 0.318709,0.22007 0.36803,0.36803 0.03879,0.11639 -0.02976,0.24902 0,0.36803 0.03601,0.14405 0.828939,1.71864 0.920073,1.84015 0.294423,0.39257 0.107177,-0.59854 0.36803,0.18402 0.03879,0.11638 -0.02975,0.24901 0,0.36803 0.06009,0.24036 0.467235,0.77873 0.552045,0.92007 0.359743,0.59958 0.669009,1.3965 0.920073,2.02417 0.11616,0.29039 0.04414,0.64033 0.184015,0.92007 0.03879,0.0776 0.156585,0.10172 0.184015,0.18401 0.06092,0.18277 -0.106053,0.761 0,0.92008 0.07608,0.11412 0.271047,0.087 0.36803,0.18401 0.130119,0.13012 -0.03025,0.37054 0,0.55205 0.101753,0.61052 0.438102,1.08642 0.552045,1.65613 0.04812,0.24059 -0.07759,0.5033 0,0.73606 0.133326,0.39998 0.382654,0.76531 0.552045,1.10409 0.175556,0.35111 -0.07295,1.10738 0,1.47212 0.07749,0.38744 0.443272,0.72339 0.552045,1.10409 0.386287,1.35201 0.02085,0.59373 0.552043,1.65613 0.03469,0.0694 0.17145,1.27554 0.184015,1.28811 0.09699,0.097 0.271047,0.087 0.36803,0.18401 0.116724,0.11673 -0.07661,0.58285 0,0.73606 0.475393,0.95079 0.184015,2.56953 0.184015,3.6803"
       id="path12" /><path
       style="fill:#d40000;fill-opacity:1;stroke-width:0.264583"
       d="m 82.80669,112.6171 c -0.624017,2.72684 0.255892,4.63054 0.920075,7.17658 0.157898,0.60527 0.17022,1.24672 0.36803,1.84015 0.113102,0.3393 0.438941,0.58077 0.552045,0.92007 0.137155,0.41147 0.03813,0.87965 0.184013,1.28811 0.41402,1.15925 2.388618,3.93577 3.496283,4.60037 0.653974,0.39238 1.960454,0.49923 2.576208,0.73606 0.333823,0.12839 0.580769,0.43894 0.920076,0.55204 0.232762,0.0776 0.494043,-0.0403 0.736057,0 0.428276,0.0714 0.867307,0.43182 1.288106,0.55205 1.206696,0.34477 0.669049,-0.0335 1.840148,0.55204 0.395621,0.19781 0.72005,0.51661 1.10409,0.73606 0.47634,0.2722 1.033217,0.40688 1.472118,0.73606 0.02365,0.0178 -0.07684,0.49846 0.184015,0.36803 0.306139,-0.15307 0.812813,-3.62388 0.552045,-4.23234 -0.615161,-1.43538 -0.552045,-0.42175 -0.552045,-1.28811 0,-0.69941 0.02743,0.71664 -0.184015,-0.55204 -0.479229,-2.87538 0.64552,1.56853 -0.36803,-1.47212 -0.0589,-0.17672 0.0883,-0.55945 0,-0.73606 -0.139798,-0.27959 -0.454504,-0.44344 -0.552043,-0.73606 -0.136535,-0.40961 -0.121197,-0.87672 -0.36803,-1.2881 -0.08926,-0.14877 -0.303599,-0.20695 -0.36803,-0.36803 -0.09112,-0.22781 0.136096,-0.53192 0,-0.73606 -0.396269,-0.5944 -0.911995,-1.25578 -1.10409,-2.02417 -0.02975,-0.11901 0.04556,-0.25412 0,-0.36803 -0.371803,-0.92951 -1.216168,-1.69627 -1.656133,-2.5762 -0.17349,-0.34699 -0.162423,-0.77512 -0.36803,-1.10409 -0.117213,-0.18755 -0.410462,-0.19813 -0.552046,-0.36803 -0.351221,-0.42147 -0.393334,-1.04372 -0.736057,-1.47212 -0.08568,-0.1071 -0.271047,-0.087 -0.36803,-0.18402 -0.04337,-0.0434 0.0368,-0.13494 0,-0.18401 -0.156144,-0.20819 -0.389477,-0.34884 -0.552045,-0.55204 -0.327388,-0.40924 -0.282411,-1.02274 -0.552046,-1.47213 -0.178519,-0.29753 -0.537077,-0.45179 -0.73606,-0.73606 -0.235961,-0.33708 -0.323802,-0.76172 -0.552042,-1.10408 -0.144354,-0.21653 -0.385448,-0.35213 -0.552046,-0.55205 -0.997148,-1.19658 0.159314,0.0815 -0.552045,-1.10409 -0.08926,-0.14876 -0.290441,-0.21285 -0.36803,-0.36803 -0.05486,-0.10972 0.05486,-0.2583 0,-0.36803 -0.02096,-0.0419 -0.487616,-0.17475 -0.552045,-0.36803 -0.0656,-0.19679 -0.312513,-1.60061 -0.368027,-1.65613 -0.245354,-0.24535 -0.184016,0.30669 -0.184016,-0.18401"
       id="path13" /><path
       style="fill:#d40000;fill-opacity:1;stroke-width:0.264583"
       d="m 86.855018,87.223049 c 0.122677,0.429365 0.294617,0.847629 0.368031,1.288102 0.121007,0.726046 -0.111924,1.480677 0,2.208178 0.05899,0.383427 0.298632,0.722411 0.368027,1.104091 0.08778,0.48279 -0.09623,0.990941 0,1.472118 0.0269,0.134493 0.157118,0.233537 0.184015,0.36803 0.04812,0.240588 -0.05951,0.498033 0,0.73606 0.140647,0.562581 0.254569,1.088829 0.36803,1.656133 0.03525,0.17622 0.171487,2.367137 0.184015,2.392193 0.02743,0.05486 0.122677,0 0.184015,0 0.122677,0.306692 0.287917,0.59962 0.36803,0.920075 0.153345,0.613381 -0.102229,0.408922 0,0.920071 0.122344,0.61172 0.217184,1.23677 0.368031,1.84015 0.196955,0.78783 0.492193,1.47658 0.736057,2.20818 -0.110911,0.33306 0.298096,0.34224 0.36803,0.55205 0.187667,0.56299 0.185344,1.29208 0.36803,1.84014 0.823503,2.47051 -0.0716,-0.73105 0.736061,1.28811 0.04556,0.1139 -0.03879,0.25165 0,0.36803 0.343495,1.03048 1.128625,1.91375 1.472117,2.94423 0.0713,0.2139 0.08658,0.5412 0.184016,0.73607 0.03879,0.0776 0.162975,0.0999 0.184015,0.18401 0.101028,0.40411 -0.101029,0.88399 0,1.2881 0.09707,0.38827 0.400407,1.22335 0.184015,1.65614 -0.07759,0.15517 -0.271794,0.22367 -0.36803,0.36803 -0.03402,0.051 0.04337,0.14064 0,0.18401 -0.302297,0.3023 -1.907249,-0.40158 -2.208179,-0.55204 -1.428805,-0.71441 -2.151882,-2.14063 -3.128253,-3.31227 -0.690076,-0.82809 -1.163553,-0.97813 -1.656133,-1.84015 -0.09623,-0.16841 -0.09727,-0.37855 -0.184015,-0.55204 -0.116382,-0.23277 -0.407691,-0.33552 -0.552045,-0.55205 -0.13561,-0.20342 -0.144555,-0.51258 -0.36803,-0.73606"
       id="path14" /><path
       style="fill:#d40000;fill-opacity:1;stroke-width:0.264583"
       d="m 93.111523,119.97769 c 0.415993,-0.43456 -0.333555,-1.70784 0,-2.20818 0.163586,-0.24537 0.599104,-0.46214 0.73606,-0.73605 0.02743,-0.0549 -0.04337,-0.14065 0,-0.18402 0.114059,-0.11406 0.647726,-0.2797 0.73606,-0.36803 0.44631,-0.44631 0.199969,-3.9845 0,-4.78438 -0.07438,-0.29754 0.04337,-0.61647 0,-0.92008 -0.06165,-0.43155 -0.392999,-0.91699 -0.552045,-1.2881 -0.341897,-0.1371 -0.108696,-0.69412 -0.184015,-0.92008 -0.09714,-0.29141 -0.56401,-1.5534 -0.73606,-1.84015 -0.08926,-0.14876 -0.290442,-0.21285 -0.368031,-0.36803 -0.113101,-0.2262 -0.09009,-0.50124 -0.184015,-0.73606 -0.1139,-0.28475 -0.414887,-0.46174 -0.552042,-0.73605 -0.669518,-1.33904 -1.352783,-2.70557 -2.024166,-4.04833 -1.032227,-2.064457 0.979609,1.39228 -0.552042,-1.288106 -1.278062,-2.236607 -2.130372,-4.473157 -2.760224,-6.992567 -0.0764,-0.30558 -0.73606,-1.9226 -0.73606,-2.024163"
       id="path15" /><path
       style="fill:#d40000;fill-opacity:1;stroke-width:0.264583"
       d="m 88.143121,81.518587 c 0.184015,0.736058 0.395743,1.465739 0.552045,2.208178 0.08935,0.424423 0.09314,0.864005 0.184015,1.288103 0.193035,0.900835 0.605431,1.84582 0.736061,2.760223 0.101986,0.713912 -0.141283,1.501778 0,2.208178 0.07608,0.380405 0.304252,0.721432 0.368027,1.104091 0.192654,1.155922 0.261935,2.329227 0.36803,3.496283 0.02223,0.244345 -0.04812,0.495469 0,0.736058 0.07608,0.380404 0.291949,0.723685 0.36803,1.10409 0.08462,0.423093 0.119039,4.302779 0,4.600369 -0.326876,0.8172 -1.152218,1.22618 -1.840148,1.65614 -0.283998,0.1775 -0.773041,0.73606 -1.10409,0.73606"
       id="path16" /><path
       style="fill:#d40000;fill-opacity:1;stroke-width:0.264583"
       d="m 83.358735,76.734201 c -1.521714,0.738499 -1.706809,2.063205 -2.392193,3.496281 -1.465167,3.063533 -3.161832,5.928772 -3.496284,9.38476 -0.08863,0.915794 0,1.840148 0,2.76022 0,3.179945 -0.191786,5.063723 2.392193,7.360597 0.723009,0.642671 1.858677,0.368031 2.760224,0.368031 1.510001,0 2.969373,-0.0293 4.048328,-1.288106 0.126233,-0.147272 0.122677,-0.36803 0.184015,-0.552045 0.184016,-0.552045 0.358373,-1.1074 0.552043,-1.656133 0.174424,-0.494197 0.46097,-0.956019 0.552045,-1.47212 0.09594,-0.543645 -0.03444,-1.105165 0,-1.656133 0.148011,-2.368161 0.156813,-0.307229 0.36803,-2.208178 0.07264,-0.653751 0,-1.363851 0,-2.024163"
       id="path17" /><path
       style="fill:#d40000;fill-opacity:1;stroke-width:0.264583"
       d="m 125.49814,96.423791 c 0.0613,0.245353 0.0901,0.501243 0.18401,0.73606 0.20376,0.509387 0.603,0.939872 0.73606,1.472118 0.0462,0.184849 0.15106,2.326271 0.18402,2.392191 0.0776,0.15518 0.29969,0.20857 0.36803,0.36803 0.3391,0.79125 -0.10768,1.99282 0.18401,2.57621 0.0274,0.0549 0.14065,-0.0434 0.18402,0 0.22989,0.22989 0,1.48425 0,1.84015 0,0.34541 0.20052,1.82364 0,2.02416 -0.0434,0.0434 -0.12451,0.0149 -0.18402,0 -0.88962,-0.2224 -0.72575,-0.84156 -1.10409,-1.47212 -0.11378,-0.18964 -0.28589,-0.3467 -0.36803,-0.55204 -0.22737,-0.56845 0,-3.15656 0,-4.04833"
       id="path18" /><path
       style="fill:#d40000;fill-opacity:1;stroke-width:0.264583"
       d="m 106.54461,77.654273 c 0,0.245354 -0.24535,0.736061 0,0.736061 0.24535,0 0,-0.981414 0,-0.736061 0,0.490707 0.0488,0.983848 0,1.472121 -0.0137,0.136475 -0.14064,0.237911 -0.18402,0.36803 -0.17693,0.530804 -0.11539,1.815224 0,2.392193 0.0269,0.134493 0.16147,0.232738 0.18402,0.368028 0.0935,0.560863 -0.26134,1.685509 0,2.20818 0.15651,0.313016 0.43916,0.765429 0.55204,1.104088 0.0582,0.174572 -0.10207,0.398936 0,0.552045 0.29836,0.447532 1.02325,1.368944 1.65614,0.73606 0.0867,-0.08675 -0.0868,-0.281286 0,-0.36803 0.11283,-0.112831 0.36803,-0.126087 0.36803,-0.552045"
       id="path19" /><path
       style="fill:#d40000;fill-opacity:1;stroke-width:0.264583"
       d="m 109.85688,72.685872 c -1.74004,-0.43125 -2.45366,0.07368 -3.86432,0.920075 -0.32018,0.192109 -0.90325,0.334394 -1.10408,0.736061 -0.11311,0.226202 -0.0932,0.500012 -0.18402,0.736057 -0.21686,0.563846 -0.5584,1.078738 -0.73606,1.656136 -0.26516,0.861756 0.0593,3.675393 0.36803,4.416356 0.11796,0.283099 0.38192,0.480877 0.55205,0.73606 0.682,1.023006 0.3047,1.288103 1.47211,1.288103 0.12268,0 0.26596,0.06805 0.36803,0 0.18136,-0.120901 0.79684,-0.551196 0.92008,-0.73606 0.11754,-0.176313 0.18265,-0.550686 0.36803,-0.736058 0.0434,-0.04337 0.14064,0.04337 0.18401,0 0.15638,-0.156385 0.21165,-0.395663 0.36803,-0.552045 0.097,-0.09699 0.27105,-0.08703 0.36803,-0.184015 0.20286,-0.202859 0.26815,-0.90433 0.36803,-1.104091 0.0274,-0.05486 0.12268,0 0.18402,0 0.0613,-0.06134 0.14522,-0.106426 0.18401,-0.184015 0.27076,-0.54152 -0.42628,0.242271 0.18402,-0.368027"
       id="path20" /><path
       style="fill:#d40000;fill-opacity:1;stroke-width:0.264583"
       d="m 99.736059,75.446095 c 0,0.245354 -0.245353,0.736061 0,0.736061 0.245351,0 0,-0.490707 0,-0.736061 0,0.674722 -0.163644,1.369589 0,2.024163 0.09526,0.381032 0.505051,0.602438 0.736061,0.920076 0.78079,1.073591 1.60616,2.392193 3.12825,2.392193 0.55679,0 1.43708,0.718539 1.84015,0.920075 0.10972,0.05486 0.26595,-0.06805 0.36803,0 0.3126,0.208402 0.32149,0.71279 0.73606,0.920073 0.10972,0.05486 0.2583,-0.05486 0.36803,0 0.12268,0.122676 0.24535,0.245353 0.36803,0.36803 0,0.06134 -0.0434,0.140642 0,0.184015 0.0434,0.04337 0.12915,-0.02743 0.18401,0 0.26837,0.134186 0.29438,0.294373 0.36803,0.36803 0.13012,0.130117 0.37747,-0.05819 0.55205,0 0.22107,0.07369 0.24993,0.284718 0.55204,0.184015 0.44005,-0.146682 0.82924,-0.649899 0.92008,-1.10409 0.17772,-0.888622 0.41354,-4.647851 0.18401,-5.336432 -0.12206,-0.366178 -0.17175,-0.08587 -0.36803,-0.184012 -0.23456,-0.117279 -0.49281,-0.470964 -0.73606,-0.552045 -0.44265,-0.147551 -1.16411,0 -1.65613,0"
       id="path21" /><path
       style="fill:#d40000;fill-opacity:1;stroke-width:0.264583"
       d="m 96.423791,90.719329 c 0.272201,0.09128 0.460187,2.162249 0.552045,2.208178 0.759312,0.379656 1.509435,-0.927793 2.024163,-1.288102 0.102045,-0.07143 1.499751,-0.763691 1.840151,-1.104091 0.092,-0.09201 0.092,-0.276021 0.18401,-0.36803 0.097,-0.09698 0.27105,-0.08703 0.36803,-0.184015 0.2286,-0.228592 0.0385,-0.997087 0.18402,-1.288103 0.13715,-0.274312 0.46185,-0.442931 0.55204,-0.73606 0.16335,-0.530878 0.0493,-1.117274 0.18402,-1.656133 0.0536,-0.214556 0.28589,-0.346704 0.36803,-0.552045 0.0911,-0.227804 -0.0595,-0.49803 0,-0.73606 0.1689,-0.675603 0.18401,-1.307441 0.18401,-2.024163"
       id="path22" /><path
       style="fill:#d40000;fill-opacity:1;stroke-width:0.264583"
       d="m 93.847583,84.094795 c -0.184015,0.36803 -0.421926,0.713735 -0.552045,1.104088 -0.182132,0.546396 0.113482,1.272741 0,1.840151 -0.154895,0.774477 -0.568222,1.452909 -0.736061,2.208178 -0.157368,0.70816 0.166474,1.323191 -0.184015,2.024163 -0.137154,0.274312 -0.394253,0.473072 -0.552042,0.73606 -0.03156,0.0526 0,0.122677 0,0.184015 -0.06134,0.122674 -0.107934,0.253907 -0.184015,0.368027 -0.170122,0.255183 -0.414888,0.461749 -0.552045,0.736061 -0.05486,0.109725 0.05486,0.258304 0,0.36803 -0.237112,0.47422 -0.870572,0.821071 -1.104091,1.288103 -0.08674,0.173492 -0.09727,0.378555 -0.184015,0.552045 -0.278043,0.55609 -2.539256,2.539259 -3.128251,3.128253"
       id="path23" /><path
       style="fill:#d40000;fill-opacity:1;stroke-width:0.264583"
       d="m 111.88104,73.053902 c 0.30669,0.306692 0.67948,0.559192 0.92007,0.920075 0.35547,0.533202 0.26883,1.42893 0.36803,2.024163 0.10528,0.631677 0.36372,1.228077 0.55205,1.840148 0.22817,0.741567 0.54788,1.455471 0.73606,2.208179 0.0997,0.398973 0.0715,0.894214 0.18401,1.288105 0.40377,1.413192 1.02259,2.772002 1.28811,4.232341 0.1179,0.648467 -0.0208,1.593837 0.18401,2.208178 0.16651,0.499533 0.55205,0.572394 0.55205,1.10409"
       id="path24" /><path
       style="fill:#d40000;fill-opacity:1;stroke-width:0.264583"
       d="m 115.74535,69.557619 c -0.86137,-0.06828 -2.40119,0.1055 -2.94424,0.920075 -0.40541,0.09267 -0.0973,0.378555 -0.18401,0.552045 -0.0323,0.06465 -0.5245,0.727276 -0.55204,0.920075 -0.0434,0.303607 0.0744,0.622539 0,0.920073 -0.55466,2.218608 -0.26141,-1.327661 -0.55205,1.288106 -0.13163,1.184687 -0.18666,3.304344 0.18402,4.416356 0.0552,0.165613 -0.0552,0.386432 0,0.552045 0.16177,0.485328 0.50773,1.015465 0.73606,1.472118 0.31469,0.629385 3.61316,1.388403 4.41635,1.656133"
       id="path25" /><path
       style="fill:#d40000;fill-opacity:1;stroke-width:0.264583"
       d="m 118.32156,77.102231 c -0.0613,0.245351 -0.42937,0.674719 -0.18402,0.736057 0.24536,0.06134 0.10404,-0.975984 0.18402,-0.736057 0.25513,0.765376 0.19302,1.604624 0.36803,2.392193 0.25025,1.12612 0.94713,2.814338 1.47212,3.864311 0.28471,0.56942 0.68795,1.075835 0.92007,1.656133 0.0456,0.113903 0,0.245353 0,0.36803 0.0613,0.306692 0.0608,0.632598 0.18402,0.920075 0.0683,0.159462 0.24535,0.245354 0.36803,0.36803 0.12267,0.245354 0.26615,0.481365 0.36803,0.736058 0.0683,0.170855 -0.0446,0.373525 0,0.552045 0.0764,0.305562 0.28475,0.486236 0.36803,0.73606 0.0388,0.116383 -0.0388,0.251648 0,0.368031 0.0274,0.08229 0.16297,0.09986 0.18401,0.184015 0.0446,0.178519 -0.0446,0.373522 0,0.552042 0.021,0.08416 0.14522,0.106429 0.18402,0.184015 0.0549,0.109726 -0.0456,0.25413 0,0.36803 0.19347,0.483675 0.46159,1.534499 0.92007,1.840151 0.20489,0.136588 1.12463,-0.02053 1.28811,-0.184015 0.0434,-0.04337 0,-0.122677 0,-0.184015 0.12267,-0.184015 0.20159,-0.406411 0.36802,-0.552045 1.03736,-0.907688 2.37884,-1.401136 3.49629,-2.208178 1.50944,-1.090153 2.02416,-3.41035 2.02416,-5.152417"
       id="path26" /><path
       style="fill:#d40000;fill-opacity:1;stroke-width:0.264583"
       d="m 110.40892,75.078065 c 0.64743,0.485571 0.87446,0.484399 1.10409,1.288106 0.0506,0.176934 -0.0506,0.37511 0,0.552045 0.0754,0.263758 0.29267,0.4723 0.36803,0.736057 0,1.046494 -0.0823,0.121148 0.18402,0.920076 0.16356,0.490707 -0.49071,-0.245354 0,0.73606 0.0613,0.122677 0.29194,0.06989 0.36803,0.184015 0.0583,0.08754 0.12218,5.031692 0,5.520444 -0.0471,0.188179 -0.15213,0.360717 -0.18402,0.552045 -0.10599,0.635921 0.1568,1.396974 0,2.024163 -0.0333,0.133062 -0.14064,0.237913 -0.18401,0.36803 -0.071,0.212902 0.0989,0.538321 0,0.73606 -0.0388,0.07759 -0.15659,0.101722 -0.18402,0.184015 -0.18401,0.552046 0.18402,1.288103 0,1.840148 -0.0787,0.236062 -0.28934,0.499999 -0.36803,0.736061 -0.11275,0.33824 -0.0837,1.254754 -0.18402,1.656133 -0.16607,0.664307 -0.45613,1.464312 -0.73606,2.024163 -0.0598,0.1197 -0.17975,1.279583 -0.36803,1.656135 -0.0388,0.07759 -0.15658,0.101719 -0.18401,0.184015 -0.092,0.276021 0.092,0.644052 0,0.920073 -0.0274,0.0823 -0.14522,0.106428 -0.18401,0.184015 -0.12205,0.244097 0.087,0.658976 0,0.920075 -0.0434,0.130117 -0.24536,0.245354 -0.18402,0.36803 0.0549,0.109726 0.24536,0 0.36803,0 0.12368,0 0.44345,0.0543 0.55204,0 0.15518,-0.07759 0.19973,-0.325953 0.36803,-0.36803 0.17852,-0.04463 0.37161,0.03609 0.55205,0 0.13262,-0.02652 1.4341,-0.89835 1.47212,-0.920075 0.39116,-0.22352 0.72003,-0.728043 1.10409,-0.920073 0.30635,-0.153175 0.17898,-0.362995 0.36803,-0.552045 0.097,-0.09699 0.27104,-0.08703 0.36803,-0.184015 0.0434,-0.04337 -0.0274,-0.129154 0,-0.184015 0.0989,-0.197811 0.23533,-0.375118 0.36803,-0.552045 0.20719,-0.276252 0.5838,-0.615559 0.73606,-0.920073 0.0274,-0.05486 -0.0434,-0.140644 0,-0.184015 0.0434,-0.04337 0.14064,0.04337 0.18401,0 0.0867,-0.08675 -0.0549,-0.258305 0,-0.36803 0.12074,-0.24148 0.26797,-0.48591 0.36803,-0.73606 0.19528,-0.488194 0.51829,-0.85257 0.73606,-1.288103 0.0943,-0.188701 0.0897,-0.54736 0.18402,-0.73606 0.28058,-0.561166 0.14587,0.336552 0.36802,-0.552046 0.0446,-0.178519 -0.0823,-0.387455 0,-0.552045 0.20515,-0.410278 0.35261,-0.889222 0.55205,-1.288102 0.0727,-0.145318 -0.0517,-0.396857 0,-0.552046 0.17573,-0.527198 0.44028,-0.913286 0.55204,-1.472117 0.0904,-0.451956 -0.19274,-1.095362 0.18402,-1.472121 0.0434,-0.04337 0.14064,0.04337 0.18401,0 0.0768,-0.07677 0.0715,-2.238621 0.18402,-2.576208 0.0699,-0.209809 0.26912,-0.354235 0.36803,-0.552045 0.33894,-0.677887 0.18401,-1.626455 0.18401,-2.392193"
       id="path27" /><path
       style="fill:#d40000;fill-opacity:1;stroke-width:0.264583"
       d="m 91.639405,85.198883 c 0.181036,0.399992 -0.135779,0.880771 0,1.288105 0.164351,0.493054 0.584552,1.017596 0.736057,1.472118 0.0388,0.116382 -0.03879,0.251648 0,0.36803 0.184015,0.429369 0.36803,0.858737 0.552045,1.288106 0,0.122676 -0.02975,0.249015 0,0.368027 0.149403,0.597609 0.677093,0.986155 0.920076,1.472121 0.217379,0.43476 -0.0099,1.084373 0.184015,1.472117 0.02743,0.05486 0.156583,-0.05486 0.184015,0 0.05486,0.109726 -0.03879,0.251651 0,0.368031 0.03743,0.112297 0.330597,0.439748 0.36803,0.552045 0.135776,0.407334 -0.06072,0.863052 0,1.288103 0.02066,0.144748 0.497737,0.886867 0.552043,1.10409 0.203078,0.812313 -0.03023,2.194375 0.184015,2.944238 0.07536,0.263758 0.281283,0.475822 0.36803,0.736058 0.01212,0.03636 0.184015,1.742698 0.184015,1.840148 0,0.42937 0,0.85874 0,1.28811 0,0.0613 -0.06134,0.18401 0,0.18401 0.06134,0 0,-0.12268 0,-0.18401 0,-0.42937 0,-0.85874 0,-1.28811 0,-0.11427 -0.09599,-0.9601 0,-1.10409 0.09624,-0.14435 0.313166,-0.20344 0.36803,-0.36803 0.07759,-0.23276 -0.04034,-0.494041 0,-0.736056 0.154673,-0.928034 1.6042,-3.059009 2.208178,-3.864313 0.125092,-0.166791 0.615633,-1.231265 0.73606,-1.472118 0.08229,-0.164589 -0.05819,-0.377473 0,-0.552045 0.02743,-0.08229 0.162976,-0.09986 0.184015,-0.184015 0.0595,-0.238027 -0.07759,-0.503296 0,-0.736061 0.155123,-0.46537 0.389356,-0.800041 0.552043,-1.288102 0.0388,-0.116383 -0.0337,-0.250074 0,-0.36803 0.09075,-0.317609 0.273118,-0.60369 0.368028,-0.920076 0.19751,-0.658362 0.23903,-1.563171 0.36803,-2.208178 0.13612,-0.680611 0.36803,-1.140952 0.36803,-1.840148"
       id="path28" /><path
       style="fill:#d40000;fill-opacity:1;stroke-width:0.264583"
       d="m 106.36059,80.230482 c 0,0.674721 0,1.349443 0,2.024163"
       id="path29" /><path
       style="fill:#d40000;fill-opacity:1;stroke-width:0.264583"
       d="m 102.86431,80.966542 c 0.12268,0.36803 0.26146,0.731078 0.36803,1.10409 0.092,0.322025 -0.18401,0.09201 0,0.552043 0.25469,0.636733 0.43515,1.355227 0.92008,1.84015 0.0749,0.07492 0.30522,0.105511 0.36803,0.184015 0.22342,0.279284 0.33744,0.633945 0.55204,0.920073 0.81568,1.087575 1.84386,1.670997 2.20818,3.128253 0.20259,0.810356 -0.26584,3.332644 0,3.864311 0.0388,0.07759 0.16297,0.09986 0.18401,0.184015 0.15209,0.60836 -0.2548,2.0666 0,2.576209 0.0776,0.155175 0.31317,0.203443 0.36803,0.36803 0.0582,0.174572 -0.18401,0.552045 0,0.552045 0.025,0 0.12841,-1.45088 0.18402,-1.840148 0.10723,-0.75061 0.44702,-1.289018 0.55204,-2.024166 0.0347,-0.242885 -0.10972,-0.516607 0,-0.736057 0.0989,-0.197811 0.28589,-0.346705 0.36803,-0.552045 0.0798,-0.199536 0,-0.686795 0,-0.920076 0,-1.297109 -0.22131,-2.83233 0.18402,-4.048326 0.16364,-0.490939 -0.19139,-1.177663 0,-1.656133 0.0821,-0.20534 0.29809,-0.342236 0.36803,-0.552045 0.11638,-0.349144 -0.0893,-0.747048 0,-1.10409 0.021,-0.08416 0.16297,-0.09986 0.18401,-0.184015 0.0246,-0.09833 0.18402,-0.959133 0.18402,-1.104088"
       id="path30" /><path
       style="fill:#d40000;fill-opacity:1;stroke-width:0.264583"
       d="m 118.32156,80.414497 c 2.45935,3.443097 -0.2126,-0.715524 1.10409,2.576208 0.2958,0.739505 1.29282,2.217618 1.65613,2.944238 0.0388,0.07759 0.16298,0.09986 0.18402,0.184015 0.15269,0.610775 0.012,1.490168 0.36803,2.024163 0.0962,0.144354 0.30359,0.206949 0.36803,0.36803 0.26484,0.662107 -0.15169,2.489169 0.18401,3.496284 0.092,0.276021 -0.092,0.644051 0,0.920072 0.35392,1.06176 0.41126,2.971412 -0.18401,3.864314 -0.32532,0.487971 -0.0988,0.430908 -0.36803,1.104088 -0.0509,0.127346 -0.36803,0.321172 -0.36803,0.184015 0,-0.872231 0.85043,-1.735685 1.2881,-2.392193 0.0853,-0.127926 0.65566,-1.046888 0.73606,-1.288103 0.0776,-0.232765 -0.0911,-0.508257 0,-0.73606 0.18366,-0.459156 0.47396,-0.868749 0.73606,-1.288106 0.67954,-1.087257 1.28714,-2.25938 2.02416,-3.312265 0.45396,-0.648507 0.92008,-1.087271 0.92008,-1.840148"
       id="path31" /><path
       style="fill:#d40000;fill-opacity:1;stroke-width:0.264583"
       d="m 116.48141,74.342008 c -0.24535,0.368027 -0.5849,0.6884 -0.73606,1.104087 -0.13405,0.368644 -0.0668,4.266502 0,4.600372 0.0269,0.134493 0.16147,0.23274 0.18402,0.36803 0.0403,0.242014 -0.0967,0.510545 0,0.73606 0.10251,0.239194 0.41815,0.328893 0.55204,0.552045 0.0631,0.105193 -0.0388,0.251648 0,0.36803 0.0111,0.03335 1.08161,1.806424 1.10409,1.840148 0.3295,0.494244 0.93143,0.812543 1.2881,1.288103 0.11148,0.148635 0.24209,0.547142 0.36803,0.73606 0.21542,0.323125 0.52196,0.598922 0.73606,0.920075 0.25851,0.387761 0.40537,0.957406 0.73606,1.288103 0.097,0.09699 0.27105,0.08703 0.36803,0.184015 0.2588,0.258795 1.17267,1.677845 1.28811,2.024163 0.0194,0.05819 0,0.122677 0,0.184015 0.0613,0.06134 0.14522,0.106429 0.18401,0.184015 0.16874,0.337479 0,3.197601 0,3.680299 0,0.245353 0.17349,0.562568 0,0.736058 -0.0434,0.04337 -0.14064,-0.04337 -0.18401,0 -0.17213,0.17213 -0.25139,0.870809 -0.36803,1.10409 -0.0989,0.19781 -0.25425,0.362402 -0.36803,0.552045 -0.0657,0.109485 -0.29559,0.663615 -0.36803,0.736058 -0.0434,0.04337 -0.12915,-0.02743 -0.18402,0 -0.76582,0.382913 0.19672,-0.0127 -0.18401,0.36803 -0.006,0.006 -0.8648,0.533871 -0.92008,0.36803 -0.0582,-0.174572 -0.11495,-0.408353 0,-0.552045 0.17136,-0.214202 0.52186,-0.196668 0.73606,-0.368028 0.10711,-0.08568 0.087,-0.271047 0.18402,-0.36803 0.42474,-0.424741 0.8703,-0.686292 1.2881,-1.10409 0.79327,-0.793263 0.64864,-1.297276 1.10409,-2.208178 0.0388,-0.07759 0.15658,-0.101722 0.18402,-0.184015 0.11798,-0.35396 0.0172,-0.770374 0.18401,-1.104091 0.37506,-0.75012 0.93258,-1.534639 1.10409,-2.392193 0.0722,-0.360881 -0.052,-0.739756 0,-1.104088 0.25023,-1.751605 0.36803,-3.370691 0.36803,-5.152416"
       id="path32" /></g><g
     inkscape:groupmode="layer"
     id="layer4"
     inkscape:label="Texto"
     style="display:inline;fill:#000000"><path
       id="path48"
       style="display:none;fill:#ececec;stroke-width:0.223698"
       d="m 171.36925,187.26309 a 52.352228,35.23885 0 0 0 -64.52122,-17.79345 52.352228,35.23885 0 0 0 -33.559855,41.13976 52.352228,35.23885 0 0 0 56.932745,27.09588 52.352228,35.23885 0 0 0 46.43335,-35.01291" /></g><g
     inkscape:groupmode="layer"
     id="layer3"
     inkscape:label="CORES"
     style="fill:#ffaaaa"><g
       id="g47"
       inkscape:label="Tons de Roxo"><g
         id="g37"
         style="fill:#ce71bc;fill-opacity:1"><path
           style="fill:#ce71bc;fill-opacity:1;stroke-width:0.491785"
           d="m 184.53923,684.03076 c -9.42769,-0.99699 -19.0351,-6.22457 -25.22888,-13.72756 -2.69,-3.2586 -6.28919,-10.36604 -7.47116,-14.75355 -0.81092,-3.0102 -0.86114,-11.44173 -0.86114,-144.58485 0,-159.33978 -0.40732,-143.46286 3.9049,-152.20751 4.90303,-9.94272 13.38231,-16.8297 24.67856,-20.04425 l 3.87436,-1.10251 197.94354,-0.13825 c 132.75548,-0.0927 199.62449,0.028 203.04776,0.36663 13.84775,1.36971 24.84358,8.833 30.8195,20.91838 4.31897,8.73445 3.91087,-7.14846 3.91087,152.20751 0,133.7644 -0.047,141.56061 -0.87097,144.58485 -4.27363,15.68485 -17.29824,26.82011 -33.34788,28.51043 -5.68059,0.59827 -394.73423,0.56978 -400.39946,-0.0293 z m 213.37515,-7.41428 c 2.9025,-1.36433 4.789,-3.98886 5.59408,-7.78259 0.75462,-3.55592 0.29034,-5.66554 -1.91764,-8.71356 -2.16634,-2.99056 -5.1269,-4.22795 -9.57793,-4.00318 -4.38128,0.22124 -6.94641,1.68923 -8.96223,5.12898 -2.39164,4.08103 -2.12675,8.39828 0.75978,12.38302 2.86329,3.95265 9.19654,5.29409 14.10394,2.98733 z M 524.7589,650.13589 c 30.12185,-5.14959 54.19032,-27.70658 61.43374,-57.57574 2.26593,-9.34387 2.30396,-10.96366 2.11773,-90.20159 l -0.17568,-74.75135 -1.11459,-4.91785 c -4.2407,-18.71108 -13.43616,-33.82289 -27.491,-45.17869 -10.06926,-8.13558 -24.14771,-14.19463 -37.20002,-16.01004 -5.3571,-0.7451 -264.24761,-0.7451 -269.60472,0 -30.64675,4.26257 -55.96621,26.98087 -63.66183,57.12163 -2.40859,9.4335 -2.41085,9.51572 -2.41085,87.42469 0,77.90897 0.002,77.99119 2.41085,87.42469 7.46955,29.25533 31.33925,51.42344 61.01023,56.661 4.93823,0.8717 10.92304,0.91325 137.03625,0.95122 129.90442,0.0391 131.95873,0.025 137.64989,-0.94797 z"
           id="path39"
           transform="scale(0.26458333)" /></g><path
         style="fill:#fff4f6;fill-opacity:1;stroke-width:0.491785"
         d="m 415.22279,589.16694 -20.00709,-0.25419 -6.80252,-9.09802 -6.80253,-9.09803 0.17609,-3.11613 c 0.14553,-2.57524 0.007,-3.30083 -0.79677,-4.18017 -1.08468,-1.18633 -1.82471,-3.11419 -1.65379,-4.30831 0.0618,-0.43193 -0.22772,-1.06761 -0.64343,-1.41263 -0.41571,-0.345 -0.75584,-1.11487 -0.75584,-1.7108 0,-0.59594 -0.55326,-1.60328 -1.22946,-2.23855 -0.67621,-0.63526 -1.22946,-1.45845 -1.22946,-1.82932 0,-0.37087 -0.55749,-1.2318 -1.23887,-1.91317 -0.68137,-0.68137 -1.10576,-1.45422 -0.94309,-1.71743 0.16268,-0.26322 -0.497,-1.35608 -1.46595,-2.42859 -0.98582,-1.09118 -1.76173,-2.46772 -1.76173,-3.12545 0,-0.64649 -0.33196,-1.30282 -0.73768,-1.45851 -0.40572,-0.15569 -0.73768,-0.69574 -0.73768,-1.20011 0,-0.50437 -0.15166,-1.06871 -0.33704,-1.25408 -0.80361,-0.80362 -1.55215,-4.09819 -1.56507,-6.88848 -0.0329,-7.09187 -0.89474,-11.05361 -2.73742,-12.58291 -0.42356,-0.35152 -0.77093,-1.10996 -0.77194,-1.68543 -0.002,-1.12894 -1.50082,-3.88496 -2.9761,-5.47236 -3.42154,-3.68159 -4.40837,-5.29321 -6.05756,-9.89273 -1.75279,-4.88845 -1.78378,-5.10418 -1.78378,-12.41758 0,-4.63394 0.18559,-7.4427 0.49179,-7.4427 0.27048,0 0.49178,-0.24262 0.49178,-0.53915 0,-0.29653 1.21717,-1.92553 2.70482,-3.61998 2.36746,-2.69657 2.70982,-3.35005 2.74494,-5.23933 l 0.0401,-2.15849 0.71944,1.64846 c 0.39569,0.90665 1.3735,2.19882 2.17292,2.87148 1.00623,0.84669 1.45348,1.67016 1.45348,2.67613 0,0.86854 0.49459,1.9865 1.22946,2.77902 0.81842,0.88263 1.23312,1.90306 1.2404,3.05219 0.006,0.95153 0.44254,2.27806 0.97263,2.95574 0.78127,0.9988 0.96375,2.01939 0.97264,5.43985 0.009,3.54048 0.1696,4.3807 1.00817,5.2808 0.54848,0.58872 1.19836,1.57099 1.44418,2.18282 0.43752,1.08894 0.44761,1.08499 0.47812,-0.18739 0.0172,-0.71489 0.36313,-1.42717 0.76885,-1.58287 0.40572,-0.15569 0.74141,-0.78794 0.74596,-1.40502 0.007,-0.99252 0.13498,-0.92339 1.10652,0.5993 l 1.09823,1.72125 0.49179,-3.76981 c 0.48647,-3.72907 0.52514,-3.80448 3.57838,-6.97885 2.87942,-2.99365 4.71912,-5.96239 4.76744,-7.69329 0.0341,-1.22149 2.40977,-4.89831 3.36437,-5.20703 2.25319,-0.72867 4.23163,-2.44204 4.25201,-3.68232 0.0114,-0.69668 0.57407,-1.78645 1.25028,-2.42171 0.72362,-0.6798 1.22946,-1.70222 1.22946,-2.48499 0,-0.99941 0.34935,-1.47467 1.40559,-1.91218 0.77308,-0.32021 2.25646,-1.45358 3.29641,-2.51859 1.03995,-1.065 2.13929,-1.93637 2.44297,-1.93637 0.30368,0 1.08865,0.57722 1.74439,1.28271 0.65573,0.70549 2.55149,2.25698 4.21279,3.44777 4.34706,3.11587 4.6446,3.72473 4.56072,9.33269 -0.0392,2.61679 0.1503,4.93028 0.42632,5.20631 0.28579,0.28578 0.38537,1.72543 0.23446,3.38965 -0.21612,2.38346 -0.12055,2.94727 0.54272,3.20179 0.50396,0.19339 0.81063,0.887 0.81999,1.85461 0.0232,2.40137 0.6642,0.77077 2.19548,-5.5852 0.74939,-3.11054 1.55447,-5.86577 1.78908,-6.12272 0.23461,-0.25696 0.42656,-0.98164 0.42656,-1.6104 0,-0.62876 1.2278,-5.4953 2.72846,-10.81454 2.41518,-8.56088 2.98307,-10.02815 4.94586,-12.77876 l 2.21741,-3.10742 1.23337,1.46577 c 1.19516,1.42038 1.2247,1.62994 0.95362,6.76649 -0.54848,10.39264 -0.82675,12.44662 -1.86515,13.767 -0.25854,0.32875 -0.32563,1.45266 -0.14909,2.4976 0.23904,1.41482 0.12525,2.06231 -0.44568,2.53615 -0.42167,0.34995 -0.76667,0.88908 -0.76667,1.19807 0,0.30899 -0.47636,1.44373 -1.05858,2.52166 -0.58221,1.07792 -2.21215,5.39006 -3.62208,9.58252 l -2.56352,7.62267 2.94108,0.14789 c 2.00608,0.10087 3.19666,-0.0728 3.74504,-0.54624 0.44217,-0.38177 2.90633,-1.71587 5.47591,-2.96467 4.94734,-2.40436 10.0693,-6.43736 12.1653,-9.57885 0.66481,-0.99643 1.95094,-2.58624 2.85806,-3.53293 0.90712,-0.94669 2.01316,-2.60646 2.45786,-3.68839 1.62892,-3.96304 2.2711,-5.45093 3.18385,-7.37678 0.51278,-1.08192 1.07623,-2.57572 1.25211,-3.31955 0.17588,-0.74382 0.55087,-1.3524 0.83332,-1.3524 0.28244,0 1.6416,1.10614 3.02034,2.45809 1.37875,1.35195 3.32949,3.1777 4.33499,4.05723 l 1.82818,1.59913 -1.44939,5.90142 c -0.79716,3.24579 -1.56873,6.39936 -1.7146,7.00794 -0.24583,1.02564 -0.0998,1.10652 1.99817,1.10652 1.57118,0 2.20178,0.18479 2.06197,0.60424 -0.21701,0.65103 -3.55669,2.86244 -6.15081,4.07284 -0.87907,0.41016 -1.5983,1.07474 -1.5983,1.47683 0,0.93546 1.7908,0.94528 3.56544,0.0195 1.15759,-0.60386 1.35241,-0.60565 1.35241,-0.0124 0,1.35772 1.44638,0.11714 2.93155,-2.51444 0.82513,-1.46205 1.95083,-2.93597 2.50155,-3.27538 0.55072,-0.33941 2.00362,-2.22156 3.22867,-4.18256 1.22506,-1.96099 2.53666,-3.56544 2.91468,-3.56544 0.40107,0 0.57236,0.29954 0.41131,0.71925 -0.15181,0.39559 0.56367,4.10242 1.58995,8.2374 1.89982,7.65463 2.0695,9.64053 2.13411,24.97653 0.004,0.94668 -0.44985,4.11124 -1.00851,7.03234 l -1.01577,5.31109 2.84224,3.77626 c 1.56323,2.07694 3.1513,4.66628 3.52903,5.75407 0.72107,2.07657 0.85755,9.32522 0.21951,11.65823 -0.20333,0.74346 -8.84595,10.56816 -19.78654,22.49279 l -19.42551,21.17272 -3.4425,-0.10826 c -1.89337,-0.0596 -12.44569,-0.22265 -23.44959,-0.36246 z"
         id="path42"
         transform="scale(0.26458333)" /><g
         id="g41"
         style="fill:#ce71bc;fill-opacity:1"><path
           style="fill:#b2499e;fill-opacity:1;stroke-width:0.491785"
           d="m 254.25294,650.29649 c -19.59761,-2.58933 -37.14281,-12.1868 -49.38225,-27.01278 -9.67412,-11.71854 -15.73988,-25.98702 -17.23301,-40.53717 -0.70341,-6.85456 -0.70341,-146.54462 0,-153.39918 3.42394,-33.36541 29.61906,-61.32241 62.67035,-66.88556 5.0737,-0.85399 10.60855,-0.93115 86.56482,-1.20668 44.6295,-0.16189 104.82401,-0.0989 133.76557,0.14003 58.58574,0.48361 54.49119,0.23532 65.67577,3.9825 21.88901,7.33349 40.22206,25.80493 47.62433,47.98383 0.80952,2.42552 1.97418,6.62306 2.58812,9.32788 l 1.11627,4.91785 0.17371,74.75135 c 0.12061,51.89774 0.009,76.37248 -0.36588,80.05385 -1.36038,13.36785 -6.3371,26.12225 -14.7669,37.84479 -3.24497,4.51249 -11.90161,12.95827 -16.85705,16.44645 -8.00752,5.63657 -17.71996,9.96064 -28.25823,12.58085 l -4.30913,1.07141 -133.76557,0.0678 c -73.57106,0.0373 -134.42948,-0.02 -135.24092,-0.12717 z m 213.37422,-24.98373 5.63571,-11.54905 2.11453,-12.30254 c 1.16298,-6.76638 2.23225,-12.30171 2.37616,-12.30071 0.1439,0.001 1.46701,4.59304 2.94024,10.20454 3.24901,12.3754 4.00102,14.99809 4.23371,14.76541 0.0984,-0.0984 -1.13166,-14.5507 -2.73338,-32.11629 l -2.91223,-31.93745 1.24557,-1.30009 c 1.0914,-1.13918 1.29089,-1.90094 1.61184,-6.15479 0.42102,-5.58031 -0.26702,-9.28079 -2.19956,-11.82982 -1.04894,-1.38355 -1.18688,-2.07532 -1.18688,-5.95223 0,-2.4127 0.13926,-5.71906 0.30946,-7.34745 l 0.30946,-2.96071 1.28884,0.67251 c 0.70887,0.36988 1.56548,0.67387 1.90358,0.67554 0.67176,0.003 0.69248,-0.0931 0.7923,-3.68536 0.0597,-2.14758 0.18951,-2.43783 1.02544,-2.29226 0.77948,0.13572 0.84899,0.0363 0.37449,-0.53537 -0.4682,-0.56415 -0.10622,-1.39359 1.84308,-4.22321 2.38967,-3.46888 2.44896,-3.64718 3.99227,-12.00516 0.86161,-4.66619 1.71655,-8.76748 1.89986,-9.11399 0.5902,-1.11561 3.47355,11.2969 3.4755,14.96164 0.004,6.60361 0.65101,17.42397 1.0197,17.04059 0.20615,-0.21436 3.39084,-7.01646 7.0771,-15.11578 l 6.70227,-14.72604 -1.56591,-9.61733 c -1.29342,-7.94376 -1.98217,-10.73691 -3.95794,-16.0511 -1.31561,-3.53857 -2.39171,-6.63682 -2.39133,-6.88499 0.002,-1.43517 9.32132,13.93447 13.26716,21.88095 2.56389,5.16338 4.79274,9.38797 4.95299,9.38797 0.16026,0 0.57034,-3.32467 0.91127,-7.38816 l 0.61989,-7.38816 -2.28177,-7.63843 c -2.21946,-7.42984 -2.42788,-7.86938 -7.63159,-16.09459 l -5.34981,-8.45615 -9.85376,-6.85734 c -5.41957,-3.77153 -9.77332,-6.93777 -9.67501,-7.03608 0.0983,-0.0983 5.38814,2.54488 11.75518,5.87376 l 11.57642,6.05252 8.91382,10.81928 c 4.9026,5.9506 9.11806,10.89145 9.36769,10.97968 0.24963,0.0882 -1.29901,-3.43905 -3.44142,-7.83837 l -3.8953,-7.99877 -8.27073,-8.27073 -8.27073,-8.27072 -20.15827,-8.81294 -20.15829,-8.81294 -78.68563,-0.43415 -78.68563,-0.43416 -16.15007,7.40603 -16.15008,7.40602 -11.49192,13.32662 -11.49191,13.32662 -6.40231,12.85102 -6.40231,12.85101 4.30667,18.35652 4.30667,18.35652 15.72176,24.02789 c 8.64696,13.21534 15.653,24.37874 15.56897,24.80756 -0.084,0.42881 -1.47865,5.72458 -3.09914,11.76838 -1.6205,6.04379 -2.86935,11.21976 -2.77522,11.50215 0.0941,0.28239 2.25781,-2.28519 4.80816,-5.70574 3.91439,-5.24998 4.69401,-6.0651 5.00273,-5.23056 0.20114,0.54374 1.16781,4.03094 2.14816,7.74933 0.98034,3.7184 1.96324,6.95108 2.18422,7.18375 0.22097,0.23266 0.31006,-2.75493 0.19796,-6.6391 l -0.2038,-7.06213 1.54206,4.42606 c 1.2265,3.52032 2.3546,5.5215 5.51259,9.77902 2.18378,2.94412 4.05282,5.106 4.15343,4.80418 0.10061,-0.30183 -0.16834,-2.24734 -0.59767,-4.32337 -0.42933,-2.07602 -0.72302,-3.82664 -0.65263,-3.89025 0.0704,-0.0636 3.85888,2.75011 8.41887,6.25272 4.56,3.50261 8.40162,6.25766 8.53695,6.12233 0.13533,-0.13533 -0.23299,-0.91879 -0.81847,-1.74103 -0.80478,-1.13022 -1.02786,-2.05681 -0.91428,-3.79761 l 0.15025,-2.30263 2.5321,4.04875 c 1.39266,2.22682 2.6354,3.86767 2.76165,3.64635 0.12625,-0.22132 0.95074,-2.61544 1.8322,-5.32026 0.88146,-2.70481 1.75655,-5.0882 1.94462,-5.2964 0.18808,-0.20821 2.0833,2.1708 4.2116,5.28669 3.61396,5.29092 5.0679,6.84634 4.49116,4.80462 -0.60267,-2.13352 -0.88398,-5.26195 -0.43115,-4.79491 0.26224,0.27049 1.85238,2.55749 3.53364,5.08223 1.68126,2.52474 3.13769,4.50958 3.23652,4.41076 0.0988,-0.0988 -0.55732,-2.49648 -1.45808,-5.32812 -0.90077,-2.83164 -1.56657,-5.2272 -1.47955,-5.32348 0.087,-0.0963 2.53306,1.94994 5.43567,4.54713 2.9026,2.5972 5.36498,4.63465 5.47195,4.52768 0.10697,-0.10697 -3.04361,-5.32904 -7.00129,-11.60458 -3.95768,-6.27555 -7.10031,-11.50556 -6.98363,-11.62225 0.11669,-0.11668 7.82158,10.41042 17.12199,23.39356 9.30041,12.98315 17.04995,23.61281 17.22122,23.62147 0.17127,0.009 0.47333,-4.7976 0.67124,-10.68058 0.19792,-5.88298 0.5004,-13.57327 0.67218,-17.08953 l 0.31233,-6.39321 2.65436,9.47634 c 1.4599,5.21199 2.76352,9.36718 2.89695,9.23376 0.13342,-0.13342 -0.15311,-8.10888 -0.63674,-17.72325 -0.48362,-9.61437 -0.76738,-17.5926 -0.63057,-17.72941 0.13681,-0.13681 1.22061,0.17369 2.40844,0.68999 1.59634,0.69388 3.68223,2.62747 7.99655,7.41272 3.21027,3.56069 5.93418,6.37666 6.05313,6.25771 0.11895,-0.11896 -1.45644,-3.20709 -3.50087,-6.86252 -2.04444,-3.65543 -3.71716,-6.77761 -3.71716,-6.93819 0,-1.13461 1.6867,0.80036 7.44499,8.5409 l 6.57089,8.83285 8.48329,0.0193 c 4.66582,0.0106 8.4833,0.0923 8.4833,0.18163 0,0.0893 -1.08633,5.01329 -2.41406,10.94222 -1.32773,5.92893 -2.32916,10.86652 -2.22539,10.97243 0.10376,0.1059 0.63803,-0.88997 1.18726,-2.21304 0.54924,-1.32307 1.28725,-3.04705 1.64003,-3.83107 l 0.64143,-1.42549 1.93778,2.51106 c 1.06577,1.38108 2.13006,2.52048 2.36509,2.532 0.23502,0.0115 0.29514,-2.13676 0.13359,-4.77396 -0.32799,-5.35402 -0.28925,-5.32547 2.37402,1.74945 0.74403,1.9765 1.47851,3.4679 1.63219,3.31423 0.15367,-0.15368 0.97009,-3.50955 1.81425,-7.4575 l 1.53485,-7.17809 2.84581,3.78101 c 1.56519,2.07955 2.91557,3.70763 3.00082,3.61796 0.0853,-0.0897 -0.26357,-2.59737 -0.77518,-5.57267 -0.51161,-2.9753 -0.93217,-5.59142 -0.93457,-5.81361 -0.002,-0.22218 1.93204,-0.3693 4.29875,-0.32694 2.36672,0.0424 5.19773,-0.0713 6.29113,-0.25268 l 1.98801,-0.32971 5.60995,16.09907 c 3.08548,8.8545 5.69631,15.83999 5.80187,15.52333 0.10555,-0.31667 -0.29268,-4.90156 -0.88496,-10.18865 -0.59228,-5.2871 -0.9873,-9.70248 -0.87781,-9.81197 0.10948,-0.10948 3.03855,7.7616 6.50905,17.4913 3.47049,9.72969 6.38142,17.69035 6.46872,17.69035 0.0873,0 2.6948,-5.19707 5.79444,-11.54905 z"
           id="path40"
           transform="scale(0.26458333)" /><path
           style="fill:#b2499e;fill-opacity:1;stroke-width:0.491785"
           d="m 390.96922,677.17455 c -8.41014,-1.25026 -12.01764,-11.28374 -6.24417,-17.36682 2.14245,-2.25735 4.61675,-3.27451 7.96542,-3.27451 7.10495,0 11.75478,5.56888 10.31495,12.35371 -1.22646,5.77933 -6.14188,9.16388 -12.0362,8.28762 z"
           id="path41"
           transform="scale(0.26458333)" /></g></g><g
       id="g46"
       inkscape:label="Tons de Rosa"><path
         style="fill:#ffaaaa;fill-opacity:1;stroke-width:0.695489"
         d="m 344.61493,592.38953 c -18.37367,-25.62917 -24.84079,-34.29652 -23.22733,-31.12969 0.29233,0.57378 5.03735,8.19025 10.54449,16.92549 5.50714,8.73524 9.85174,16.04348 9.65468,16.24055 -0.19706,0.19706 -1.94844,-1.1291 -3.89195,-2.94703 -1.94351,-1.81792 -3.72052,-3.11846 -3.94891,-2.89007 -0.22838,0.22839 0.0894,1.89633 0.70621,3.70653 1.68517,4.9457 1.37881,5.15222 -1.40591,0.94775 -3.60931,-5.44948 -3.95152,-5.6764 -3.39474,-2.25105 0.26425,1.62571 0.32975,2.95583 0.14556,2.95583 -0.18419,0 -1.8318,-2.19079 -3.66134,-4.86843 -1.82954,-2.67763 -3.52908,-4.86842 -3.77673,-4.86842 -0.24765,0 -1.18642,2.34727 -2.08615,5.21617 -0.89973,2.86889 -1.82906,5.21617 -2.06517,5.21617 -0.23612,0 -1.35466,-1.55864 -2.48564,-3.46365 -1.13099,-1.905 -2.29107,-3.46985 -2.57796,-3.47745 -0.28688,-0.008 -0.52161,1.06313 -0.52161,2.37937 0,1.31624 -0.30358,2.58079 -0.67461,2.8101 -0.37104,0.22931 -2.64007,-1.10608 -5.0423,-2.96754 -2.40223,-1.86146 -5.57984,-4.28793 -7.06137,-5.39215 l -2.69368,-2.00767 0.47177,3.79916 0.47176,3.79915 -1.43629,-1.73873 c -3.33091,-4.0323 -5.61927,-8.06798 -7.03829,-12.41252 -0.8312,-2.54483 -1.76811,-4.90689 -2.08203,-5.24902 -0.31391,-0.34213 -0.43541,2.31811 -0.26998,5.91166 l 0.30077,6.53371 -1.84402,-6.45336 c -1.01422,-3.54934 -2.09083,-6.36607 -2.39247,-6.2594 -0.30165,0.10667 -2.28482,2.51799 -4.40707,5.35848 -2.12223,2.84048 -3.85364,4.7183 -3.84755,4.17294 0.006,-0.54538 1.2491,-5.49564 2.76226,-11.00059 1.51316,-5.50495 2.54279,-10.35599 2.28806,-10.78009 -0.25472,-0.42409 -7.3419,-11.25558 -15.74927,-24.06997 l -15.28613,-23.29889 -4.36418,-18.33581 -4.36417,-18.33581 6.39723,-12.73999 c 6.37188,-12.68952 6.44205,-12.79214 17.71327,-25.90336 l 11.31604,-13.16336 16.15578,-7.47335 16.15579,-7.47335 78.54806,0.50038 78.54806,0.50037 19.86367,8.66205 19.86367,8.66206 8.22522,8.12336 c 6.78205,6.69807 8.7117,9.08172 10.9979,13.58538 1.52498,3.00411 2.6507,5.584 2.5016,5.7331 -0.1491,0.1491 -3.71441,-3.87366 -7.92292,-8.93945 l -7.65184,-9.21055 -14.8983,-7.57777 c -8.19406,-4.16777 -14.51784,-7.16739 -14.05284,-6.66583 0.46499,0.50156 6.23616,4.69398 12.8248,9.31649 l 11.97934,8.40456 5.09662,7.99812 c 4.06316,6.37631 5.59638,9.5875 7.56125,15.83627 2.38463,7.58375 2.44547,8.04648 1.87434,14.25753 l -0.59028,6.41939 -4.06261,-7.99813 c -4.01757,-7.90947 -15.48977,-26.18263 -16.07222,-25.60018 -0.16574,0.16574 1.11039,3.88104 2.83586,8.25621 2.28709,5.79925 3.6174,10.69514 4.90922,18.06725 l 1.772,10.11238 -6.48876,14.20664 -6.48876,14.20665 -0.49958,-9.71376 c -0.34978,-6.80119 -1.06332,-12.00354 -2.37972,-17.35053 l -1.88014,-7.63678 -1.94351,10.66884 c -1.59929,8.7793 -2.32516,11.26362 -4.09847,14.02708 -1.18523,1.84703 -2.50248,3.47406 -2.92721,3.61564 -0.44875,0.14959 -0.73779,1.76996 -0.69,3.86818 0.0886,3.88784 -0.46569,4.37495 -2.57637,2.26427 -1.33166,-1.33166 -1.35124,-1.30294 -1.77691,2.60808 -0.23673,2.17502 -0.5271,4.58052 -0.64526,5.34556 -0.22048,1.42746 -0.5215,-6.63732 -0.75281,-20.16919 -0.0957,-5.60041 -0.61615,-9.57006 -1.94219,-14.8145 -0.99628,-3.94027 -1.62681,-7.64521 -1.40118,-8.2332 0.30882,-0.80477 0.0127,-1.01096 -1.19766,-0.83401 -1.06503,0.15571 -2.18972,1.29174 -3.33116,3.36478 -2.07753,3.77313 -2.39369,4.00738 -4.91012,3.63805 l -1.97065,-0.28924 0.91917,-4.28249 c 1.47778,-6.88513 1.28976,-8.41667 -1.29231,-10.52628 -1.24319,-1.01571 -3.57595,-3.07784 -5.18391,-4.5825 -3.26606,-3.05623 -4.37907,-3.3985 -4.37907,-1.34663 0,0.76402 -0.93891,3.37633 -2.08647,5.80514 -1.14755,2.42881 -2.08646,4.77692 -2.08646,5.21802 0,0.44111 -0.31297,0.80201 -0.69549,0.80201 -0.38252,0 -0.69549,0.30948 -0.69549,0.68772 0,1.24099 -6.27186,8.9662 -9.28175,11.43258 -3.37418,2.7649 -9.81692,5.94561 -12.0635,5.95563 -0.83809,0.004 -1.71723,0.31976 -1.95364,0.70228 -0.23641,0.38252 -1.07214,0.69549 -1.85718,0.69549 -1.24651,0 -1.37114,-0.29951 -0.9838,-2.3642 0.24394,-1.30032 0.93511,-3.41287 1.53593,-4.69456 3.91417,-8.34983 5.00517,-11.33818 5.92903,-16.24013 2.4807,-13.16249 2.66797,-20.47018 0.59219,-23.10911 -0.76504,-0.97259 -1.39098,-2.19559 -1.39098,-2.71778 0,-1.6411 -1.22383,-1.03742 -2.65752,1.31089 -1.96357,3.2162 -7.10253,19.6232 -7.56993,24.16826 -0.21636,2.10385 -0.61611,4.13816 -0.88833,4.52068 -0.27223,0.38252 -1.09049,2.64887 -1.81835,5.03635 -0.72788,2.38747 -1.51287,4.34354 -1.74445,4.34681 -0.50806,0.007 -1.30587,-7.94701 -1.31273,-13.08798 -0.005,-4.08009 -0.25373,-4.41822 -7.61963,-10.37702 l -3.65157,-2.95402 -3.15841,2.78014 c -1.73712,1.52908 -3.42731,2.78014 -3.75597,2.78014 -0.32867,0 -0.59758,0.74411 -0.59758,1.65357 0,0.90946 -0.43875,2.01769 -0.975,2.46274 -0.53624,0.44504 -1.15477,1.52549 -1.37451,2.40098 -0.22066,0.87919 -1.52464,2.18969 -2.91274,2.92731 -1.38227,0.73452 -3.02923,2.2744 -3.65991,3.42196 -1.11652,2.03158 -1.26304,2.48225 -1.42995,4.39844 -0.0441,0.50654 -1.76485,2.69733 -3.82383,4.86842 -2.24047,2.36245 -3.93967,4.86181 -4.23192,6.22471 -0.34156,1.5929 -0.83636,2.21994 -1.64644,2.08647 -0.69406,-0.11435 -1.16167,0.27721 -1.16699,0.97721 -0.005,0.64241 -0.23961,1.39875 -0.52161,1.68076 -0.28202,0.28201 -0.51275,0.14761 -0.51275,-0.29865 0,-0.44628 -0.39122,-0.73317 -0.86936,-0.63754 -0.60661,0.12132 -0.97447,-1.34025 -1.21711,-4.83581 -0.19126,-2.75533 -0.73896,-5.39993 -1.21711,-5.87689 -0.47815,-0.47695 -0.86936,-1.70519 -0.86936,-2.72941 0,-1.02421 -0.46945,-2.25182 -1.04323,-2.72801 -0.57378,-0.4762 -1.04324,-1.44254 -1.04324,-2.14743 0,-0.70489 -0.8861,-2.30966 -1.96913,-3.56616 -1.08301,-1.2565 -2.1762,-2.85207 -2.42929,-3.54573 -0.68826,-1.88629 -1.86098,-0.71305 -1.86098,1.86181 0,1.60987 -0.69815,3.01946 -2.43421,4.91481 -1.33882,1.46164 -2.43421,2.89299 -2.43421,3.18077 0,0.28778 -0.70348,0.99033 -1.56328,1.56122 -1.4404,0.95639 -1.49506,1.2266 -0.69549,3.43778 0.47728,1.3199 0.87856,4.4119 0.89173,6.87111 0.0313,5.84924 2.84454,13.04836 7.17758,18.36763 1.78132,2.18675 3.44496,4.8057 3.69697,5.81988 0.25201,1.01418 1.04926,2.6475 1.77168,3.62961 0.96261,1.30864 1.42375,3.48759 1.72625,8.1567 0.39718,6.13051 0.35436,6.39265 -1.13432,6.94335 -1.48284,0.54853 -1.41489,0.69415 1.63677,3.50707 1.75111,1.61413 3.19081,3.31954 3.19932,3.78981 0.008,0.47027 0.62748,1.63746 1.37551,2.59376 0.74802,0.9563 1.367,1.97666 1.37551,2.26747 0.009,0.29082 1.04964,2.01215 2.31364,3.8252 1.264,1.81304 2.85195,5.07687 3.52879,7.25295 0.67685,2.17609 1.69608,4.34282 2.26498,4.81496 0.80695,0.66971 0.93619,1.78755 0.58791,5.08484 -0.39749,3.76294 -0.24087,4.59264 1.42821,7.56619 1.03106,1.83689 1.72012,3.49432 1.53125,3.6832 -0.18888,0.18887 -1.9278,-1.43425 -3.86429,-3.60694 -1.93649,-2.17269 -4.79103,-4.51901 -6.34344,-5.21404 l -2.82256,-1.2637 0.0101,3.96506 c 0.006,2.18078 0.32541,9.40906 0.71081,16.06284 0.38539,6.65377 0.59355,12.20494 0.46257,12.33593 -0.13099,0.13098 -1.30462,-3.59168 -2.60806,-8.27259 l -2.3699,-8.51074 -0.46819,3.82519 c -0.25751,2.10386 -0.53021,7.42435 -0.606,11.82332 -0.0758,4.39897 -0.34148,10.56582 -0.5904,13.7041 l -0.45259,5.70597 z m -2.29999,-108.83738 c -0.17633,-0.67669 -0.3322,-0.29143 -0.34638,0.85613 -0.0142,1.14756 0.1301,1.70121 0.32062,1.23034 0.1905,-0.47087 0.2021,-1.40978 0.0258,-2.08647 z"
         id="path43"
         transform="scale(0.26458333)" /><path
         style="fill:#ffaaaa;fill-opacity:1;stroke-width:0.695489"
         d="m 455.19773,616.87468 c -6.03795,-17.12473 -8.13143,-21.9499 -7.30692,-16.84131 0.67226,4.16526 1.82227,16.32269 1.56806,16.5769 -0.14858,0.14858 -2.32093,-5.59387 -4.82745,-12.76099 -3.82782,-10.94525 -4.37622,-13.06313 -3.42601,-13.23097 0.62222,-0.1099 9.26729,-9.07717 19.21126,-19.92726 9.94397,-10.85009 18.15296,-19.52334 18.24219,-19.27388 0.26868,0.75112 5.05784,53.01213 5.00453,54.61114 -0.0486,1.45881 -1.07489,-1.84691 -4.17367,-13.44409 -1.20715,-4.51774 -1.70303,-5.56761 -2.13525,-4.52068 -0.30962,0.74999 -1.50156,6.90697 -2.64875,13.68217 l -2.0858,12.31855 -5.40752,10.77476 -5.40752,10.77475 z"
         id="path44"
         transform="scale(0.26458333)" /><path
         style="display:inline;fill:#fdd1d9;fill-opacity:1;stroke-width:0.245893"
         d="m 416.80982,603.39931 c -1.20513,-3.23417 -2.24514,-5.88032 -2.31113,-5.88032 -0.12179,0 0.0822,5.18594 0.36271,9.22098 l 0.15384,2.21303 -2.15614,-2.64334 c -1.18588,-1.45384 -2.23598,-2.64335 -2.33355,-2.64335 -0.0976,0 -0.65472,1.21807 -1.23812,2.70683 -0.5834,1.48876 -1.10675,2.66081 -1.163,2.60456 -0.0562,-0.0562 0.8699,-4.48322 2.0581,-9.83772 l 2.16036,-9.73544 h 4.33499 c 5.09477,0 10.54267,0.53868 9.83998,0.97296 -0.25347,0.15666 -0.13662,1.27718 0.57834,5.54602 0.4928,2.94233 0.85149,5.39419 0.7971,5.44858 -0.0544,0.0544 -1.29882,-1.50805 -2.76539,-3.47208 -1.46657,-1.96404 -2.73723,-3.48949 -2.82367,-3.38988 -0.0865,0.0996 -0.84998,3.44531 -1.69673,7.43492 -0.84676,3.98961 -1.55463,7.272 -1.57305,7.2942 -0.0184,0.0222 -1.01951,-2.60578 -2.22464,-5.83995 z"
         id="path45"
         transform="scale(0.26458333)" /><path
         style="fill:#ffaaaa;fill-opacity:1;stroke-width:0.264583"
         id="path47"
         d="m 88.29015,126.26128 c 0.04613,0.24834 0.0232,0.50118 0.0374,0.75171 0.0033,0.0583 0.02371,0.26805 0.02984,0.33291 0.01717,0.14798 0.02548,0.29664 0.03718,0.44507 0,0 3.577955,1.65999 3.577955,1.65999 v 0 c -0.11662,-0.11343 -0.09011,-0.2386 -0.128543,-0.38972 -0.06512,-0.34712 -0.122472,-0.66051 -0.0506,-1.01498 z" /></g><g
       id="g78"
       inkscape:label="Tons das Letras"><path
         style="fill:#b2499e;fill-opacity:1;stroke-width:0.491785"
         d="m 61.343242,754.50757 c -6.022049,-5.60489 -10.890722,-10.40423 -10.819274,-10.66522 0.07145,-0.26099 10.808577,-10.82142 23.860286,-23.46762 13.051709,-12.6462 24.362817,-23.71914 25.135795,-24.60652 1.645581,-1.88915 3.017161,-4.42209 3.017161,-5.57191 0,-1.7674 -1.67534,-4.23171 -3.672642,-5.40221 -4.354979,-2.55218 -7.70378,-1.09263 -16.018589,6.9816 l -5.981686,5.80861 3.27044,3.09844 3.27044,3.09843 -8.945513,8.7109 c -4.920035,4.79099 -9.378316,9.01514 -9.907295,9.38699 -0.879496,0.61826 -1.231517,0.40877 -4.11453,-2.44862 l -3.152749,-3.12473 -7.003995,6.88348 c -3.852197,3.78591 -7.930052,7.74018 -9.061899,8.78727 l -2.057904,1.90379 -10.974403,-10.23239 c -6.035922,-5.62782 -11.034712,-10.37623 -11.108422,-10.55204 -0.226627,-0.54051 49.935225,-48.76817 53.671396,-51.60188 4.185583,-3.17456 11.172666,-6.60156 15.574999,-7.63916 1.749024,-0.41224 5.413005,-0.75279 8.142177,-0.75679 10.865375,-0.0159 19.675155,3.9898 29.561695,13.44139 7.32501,7.00275 10.98223,13.27666 12.08427,20.73041 1.0009,6.76974 -1.61111,14.35427 -7.7326,22.45322 -2.21181,2.9263 -11.37643,12.15077 -29.31567,29.50711 -14.353862,13.88747 -26.249669,25.29904 -26.435121,25.35905 -0.185452,0.06 -5.264319,-4.47671 -11.286367,-10.0816 z"
         id="path68"
         transform="scale(0.26458333)" /><path
         style="fill:#b2499e;fill-opacity:1;stroke-width:0.491785"
         d="m 136.24478,800.10111 c -6.48042,-3.50264 -11.96496,-6.55083 -12.18787,-6.77375 -0.22292,-0.22292 4.27779,-8.24322 10.00158,-17.8229 11.89483,-19.9079 12.95576,-21.95201 12.49125,-24.0669 -0.39152,-1.78262 -2.79912,-3.72244 -5.16403,-4.1607 -3.40212,-0.63048 -4.21703,0.38255 -15.61903,19.41668 -5.7518,9.60186 -10.95243,18.25457 -11.55696,19.22823 l -1.09913,1.77031 -12.41757,-6.68467 c -6.829671,-3.67656 -12.41758,-6.83903 -12.41758,-7.02769 0,-0.59172 21.14516,-35.90167 23.40086,-39.07671 6.07096,-8.54525 16.14745,-14.00339 27.2703,-14.77153 13.12544,-0.90643 27.65593,7.12334 33.30155,18.40296 4.80935,9.60878 4.59285,18.64932 -0.70379,29.38812 -2.64581,5.36432 -22.47406,38.5675 -23.02524,38.55667 -0.27048,-0.005 -5.79393,-2.87547 -12.27434,-6.37812 z"
         id="path69"
         transform="scale(0.26458333)" /><path
         style="fill:#b2499e;fill-opacity:1;stroke-width:0.491785"
         d="m 179.14184,817.42783 c -7.23039,-2.61405 -13.15025,-4.97318 -13.15525,-5.24251 -0.011,-0.59251 27.06462,-68.19693 27.53355,-68.74784 0.25645,-0.30128 26.1786,8.63209 26.99196,9.30205 0.26992,0.22234 -27.60881,69.53472 -27.94744,69.48321 -0.15216,-0.0231 -6.19243,-2.18085 -13.42282,-4.79491 z"
         id="path70"
         transform="scale(0.26458333)" /><path
         style="fill:#b2499e;fill-opacity:1;stroke-width:0.491785"
         d="m 213.12525,742.06913 c -5.01682,-0.79014 -9.79437,-4.06223 -11.71048,-8.02039 -2.20239,-4.54952 -0.77802,-11.03652 3.1879,-14.51864 2.93128,-2.5737 5.83769,-3.66993 9.82497,-3.70575 6.7008,-0.0602 12.23906,3.97392 14.2581,10.38575 1.019,3.23601 0.62931,6.07691 -1.29595,9.44793 -2.82864,4.95276 -8.19895,7.36641 -14.26454,6.4111 z"
         id="path71"
         transform="scale(0.26458333)" /><path
         style="fill:#b2499e;fill-opacity:1;stroke-width:0.491785"
         d="m 300.48075,847.48359 c -7.5735,-1.4883 -13.80198,-2.73672 -13.84107,-2.77427 -0.0391,-0.0376 1.78806,-8.6991 4.06035,-19.24789 5.05383,-23.46183 5.26874,-24.72123 4.56368,-26.74379 -0.65514,-1.87931 -1.72762,-2.51743 -4.23102,-2.51743 -2.50558,0 -3.73298,0.94533 -4.92156,3.79053 -0.54149,1.29623 -2.93086,11.45328 -5.30969,22.57122 l -4.32516,20.21444 -3.24311,-0.62324 c -1.78371,-0.34278 -8.11178,-1.55845 -14.06238,-2.70148 -5.9506,-1.14304 -10.89333,-2.13999 -10.98384,-2.21544 -0.0905,-0.0754 1.84589,-9.5396 4.30312,-21.03145 2.45723,-11.49184 4.46769,-21.77075 4.46769,-22.84202 0,-5.70742 -6.78613,-6.70489 -9.27417,-1.36318 -0.50917,1.09317 -2.86302,11.06102 -5.23077,22.15078 -2.36774,11.08975 -4.48718,20.36178 -4.70985,20.6045 -0.2356,0.25682 -6.22365,-0.68964 -14.32367,-2.26397 -10.57051,-2.0545 -13.89452,-2.87049 -13.81784,-3.39202 0.43698,-2.97213 9.7846,-45.55549 10.52929,-47.96651 2.67428,-8.65831 11.78467,-17.02092 21.38112,-19.62616 5.79193,-1.5724 14.42979,-0.82237 20.26721,1.7598 4.68691,2.07324 11.50998,8.05086 13.74195,12.03918 0.36958,0.66039 0.97165,0.49529 4.33411,-1.18848 10.86877,-5.44262 20.11687,-5.85926 29.52775,-1.33028 6.73957,3.24342 11.90884,8.80907 14.29994,15.39647 1.45289,4.00266 1.94974,10.43759 1.18861,15.39409 -0.50784,3.30704 -9.05289,43.7491 -9.6896,45.85896 -0.14284,0.47335 -0.41078,0.83655 -0.59541,0.80714 -0.18463,-0.0294 -6.53219,-1.2712 -14.10568,-2.7595 z"
         id="path72"
         transform="scale(0.26458333)" /><path
         style="fill:#b2499e;fill-opacity:1;stroke-width:0.491785"
         d="m 365.1505,852.21934 c -13.50605,-1.49603 -25.86684,-9.99755 -31.7544,-21.84006 -2.68746,-5.40568 -3.63706,-9.70709 -3.63706,-16.47481 0,-6.50146 0.93923,-10.97709 3.3541,-15.98301 3.82439,-7.92778 9.82144,-14.06127 17.75474,-18.15865 5.94754,-3.07179 10.37964,-4.22256 17.58224,-4.56515 13.77745,-0.6553 23.92764,3.29531 32.94677,12.8234 4.30472,4.54763 7.3919,9.97169 8.85388,15.55593 0.80489,3.07439 1.25958,14.28674 0.60607,14.94511 -0.55518,0.5593 -43.2462,-0.32813 -44.04972,-0.91568 -1.18996,-0.87012 -1.46414,-6.35495 -0.48589,-9.72001 l 0.79957,-2.75043 7.64931,0.27919 7.64931,0.27919 -0.33439,-1.42753 c -1.1839,-5.05397 -4.51134,-7.57484 -9.99848,-7.57484 -5.45145,0 -8.71106,2.26392 -11.26755,7.82571 -1.78914,3.89238 -2.07702,10.49159 -0.66106,15.15336 2.60911,8.5899 10.30491,11.94586 17.35044,7.56611 2.45576,-1.52658 2.58807,-1.55385 3.38979,-0.6986 2.43137,2.59373 14.74288,17.39104 14.74213,17.7187 -4.8e-4,0.21108 -0.94102,0.96868 -2.09009,1.68356 -5.78735,3.60054 -11.31367,5.50154 -18.31812,6.30126 -4.88354,0.55758 -4.84167,0.55767 -10.08159,-0.0227 z"
         id="path73"
         transform="scale(0.26458333)" /><path
         style="fill:#b2499e;fill-opacity:1;stroke-width:0.491785"
         d="m 495.40725,843.90066 c -4.77965,-6.40038 -66.32435,-94.5843 -66.14016,-94.7685 0.24398,-0.24397 35.38703,-7.06655 35.47638,-6.88729 2.49941,5.01491 16.2963,29.23045 16.5141,28.98464 0.1736,-0.19593 1.16609,-7.50021 2.20553,-16.23173 1.03944,-8.73152 2.02752,-16.09818 2.19573,-16.37036 0.30632,-0.49565 33.79318,-7.13403 34.15615,-6.77106 0.10601,0.10601 -4.98979,25.41528 -11.32399,56.24282 -6.33421,30.82755 -11.58057,56.38082 -11.65856,56.78505 -0.0947,0.49094 -0.56791,0.16439 -1.42518,-0.98357 z"
         id="path74"
         transform="scale(0.26458333)" /><path
         style="fill:#b2499e;fill-opacity:1;stroke-width:0.491785"
         d="m 557.68439,820.58897 c -9.89819,-2.25912 -18.90642,-7.96229 -24.06011,-15.23261 -10.29322,-14.52067 -10.47761,-30.78109 -0.50855,-44.84522 7.34903,-10.36783 20.93927,-17.05358 34.65026,-17.04626 16.14699,0.009 30.86466,9.6753 36.65405,24.07468 2.36078,5.87176 4.55308,4.36494 -18.30435,12.58105 -11.03902,3.96798 -20.37947,7.27275 -20.75655,7.34393 -1.00817,0.19032 -3.31083,-3.39825 -4.19773,-6.54194 -1.44415,-5.11885 -1.67831,-4.82808 6.1128,-7.5904 3.78674,-1.34259 6.88499,-2.6768 6.88499,-2.96492 0,-0.65483 -3.31969,-3.86092 -4.76258,-4.59961 -1.867,-0.95581 -6.0711,-0.6481 -8.85515,0.64813 -3.19306,1.48667 -5.30039,4.27139 -6.08218,8.03727 -1.63405,7.87116 4.14327,19.36479 11.06194,22.00705 5.07401,1.93778 10.96043,-0.0459 13.4388,-4.52882 l 1.11245,-2.01221 10.82884,5.7789 c 5.95585,3.1784 10.96489,5.91497 11.1312,6.08127 0.47996,0.47997 -1.91561,3.77992 -5.06895,6.9826 -5.07098,5.15033 -11.17451,8.66734 -19.36188,11.15683 -4.18904,1.27374 -15.59191,1.65748 -19.9173,0.67028 z"
         id="path75"
         transform="scale(0.26458333)" /><path
         style="fill:#b2499e;fill-opacity:1;stroke-width:0.491785"
         d="m 627.46569,793.37244 c -24.6955,-40.69906 -24.75591,-40.81926 -25.14772,-50.03914 -0.27168,-6.39305 0.48877,-10.00346 3.19376,-15.16305 1.89995,-3.62402 5.93015,-8.05401 9.66478,-10.6235 3.27715,-2.25475 11.61291,-6.12379 12.10297,-5.6176 0.48116,0.49701 15.23786,24.76197 15.23786,25.05616 0,0.11037 -0.60859,0.20554 -1.35241,0.21148 -1.9614,0.0157 -5.19716,1.62067 -6.43186,3.19034 -1.49764,1.90393 -1.456,6.03182 0.0942,9.33938 0.63385,1.35241 5.30492,9.31933 10.38016,17.70426 5.07523,8.38494 9.30394,15.37638 9.39713,15.53652 0.16439,0.28249 -24.11381,13.7247 -24.7884,13.7247 -0.18493,0 -1.24265,-1.49379 -2.35048,-3.31955 z"
         id="path76"
         transform="scale(0.26458333)" /><path
         style="fill:#b2499e;fill-opacity:1;stroke-width:0.491785"
         d="m 660.21722,766.19604 -9.43181,-11.31846 2.46645,-2.21755 c 6.25807,-5.62655 5.92137,-9.8106 -1.62123,-20.146 -1.77653,-2.43434 -4.14783,-6.25278 -5.26956,-8.48543 -1.73958,-3.46242 -2.07071,-4.61951 -2.2518,-7.86856 -0.48466,-8.69553 3.33769,-16.82044 10.98262,-23.34503 3.32602,-2.8386 9.55556,-7.43378 9.76778,-7.20515 0.0942,0.10152 1.52356,1.80909 3.17627,3.7946 l 3.00494,3.61003 v -5.84268 c 0,-5.97033 0.49417,-8.79963 2.45001,-14.02708 2.58512,-6.90935 10.36797,-16.01655 17.11075,-20.02236 6.40975,-3.80796 17.47564,-6.40842 24.18794,-5.68412 7.80359,0.84206 16.64693,4.35319 22.31422,8.85955 2.5846,2.05516 2.79779,2.36223 2.15393,3.10236 -0.39302,0.4518 -6.38971,7.95848 -13.32596,16.68152 -6.93625,8.72304 -12.83688,15.86007 -13.11251,15.86007 -1.93517,0 -9.68308,-5.92047 -9.86779,-7.54034 -0.0257,-0.2252 1.85737,-2.80332 4.18455,-5.72916 2.32718,-2.92584 4.23124,-5.5528 4.23124,-5.83769 0,-0.70758 -3.2095,-1.54346 -5.90142,-1.53696 -2.98976,0.007 -5.76817,1.65889 -7.74561,4.60449 -1.37722,2.05151 -1.59831,2.80444 -1.59831,5.44331 0,6.17551 4.17278,11.60643 11.90747,15.49774 4.47381,2.25076 8.06499,2.8552 11.73412,1.97499 4.86286,-1.16658 8.33469,-6.0662 7.69228,-10.85572 l -0.23944,-1.78515 7.19785,-0.32095 c 3.95882,-0.17652 9.83003,-0.46184 13.04715,-0.63406 l 5.84929,-0.31311 -0.35254,3.57774 c -1.02369,10.38881 -5.22075,18.85258 -12.97709,26.16952 -6.29724,5.9405 -14.44816,9.63535 -23.78782,10.78312 -11.80305,1.45052 -23.9388,-2.71497 -33.0247,-11.33543 -2.72869,-2.58892 -2.90609,-2.67787 -3.55918,-1.78471 -1.90968,2.61164 -1.18055,5.96036 2.55144,11.71819 2.98306,4.60236 5.73819,10.16955 6.87206,13.88609 1.39655,4.57756 1.29767,13.72361 -0.19507,18.04382 -2.124,6.14719 -6.76173,12.04593 -13.88618,17.66188 -2.19461,1.72993 -4.28547,3.31179 -4.64636,3.51524 -0.4603,0.25949 -3.47161,-3.00871 -10.08798,-10.94856 z"
         id="path77"
         transform="scale(0.26458333)" /><path
         style="fill:#b2499e;fill-opacity:1;stroke-width:0.491785"
         d="m 667.76403,774.42528 c -1.3258,-1.41264 -5.26137,-5.99864 -8.74571,-10.19111 -3.48434,-4.19247 -6.68008,-8.02657 -7.10165,-8.52023 -0.71184,-0.83356 -0.61796,-1.02094 1.31647,-2.62779 2.75999,-2.2926 4.52954,-5.37499 4.52954,-7.89003 0,-3.12131 -1.17782,-5.73043 -5.60464,-12.41546 -6.43706,-9.72073 -7.32019,-11.70787 -7.57263,-17.03922 -0.31151,-6.57872 1.48434,-11.97422 5.91725,-17.77795 1.76769,-2.31433 8.22532,-7.91735 12.57598,-10.91166 l 1.62757,-1.12016 1.81492,2.1362 c 0.99821,1.17491 2.38588,2.78201 3.08371,3.57133 l 1.26879,1.43512 0.52883,-7.32833 c 0.74956,-10.38688 2.32932,-14.54419 8.50714,-22.38733 5.71755,-7.25881 11.69241,-11.2735 20.88428,-14.03281 3.8557,-1.15744 5.28162,-1.3294 11.06517,-1.33443 5.94409,-0.005 7.0767,0.13763 10.81927,1.36416 5.15325,1.68884 11.96608,5.208 14.70969,7.59827 l 2.05736,1.7924 -11.45718,14.27221 c -14.88903,18.54726 -14.7744,18.41229 -15.64614,18.42264 -1.57646,0.0187 -8.85562,-5.83216 -8.83504,-7.10147 0.005,-0.28178 1.77499,-2.8073 3.93428,-5.61226 2.15928,-2.80495 3.92597,-5.41074 3.92597,-5.79064 0,-1.01167 -2.11763,-1.64996 -5.47398,-1.64996 -3.30551,0 -4.37003,0.41713 -6.73966,2.64089 -2.42788,2.27843 -3.03229,3.78385 -3.02689,7.53923 0.006,4.16198 1.39132,7.33495 4.57339,10.47486 6.54102,6.45436 15.51194,9.03242 21.33426,6.13103 3.53741,-1.76276 5.21782,-4.3392 5.47615,-8.39611 0.11012,-1.72951 0.22977,-3.15792 0.26588,-3.17424 0.22512,-0.10179 25.1682,-1.33149 25.2592,-1.24528 0.44346,0.42008 -1.57749,10.25591 -2.79694,13.61252 -3.46877,9.54798 -12.07255,18.71514 -21.46243,22.86779 -5.98741,2.64791 -9.75391,3.37763 -17.40898,3.3728 -6.79584,-0.004 -7.35602,-0.0817 -11.9226,-1.64811 -5.53241,-1.89767 -11.13062,-5.17951 -15.52724,-9.10253 -1.69291,-1.51055 -3.36608,-2.74646 -3.71817,-2.74646 -0.35208,0 -0.89697,0.56367 -1.21087,1.2526 -1.33706,2.93453 -0.48441,5.58992 4.5317,14.11302 1.50541,2.55792 3.45905,6.39889 4.34142,8.5355 1.56195,3.78217 1.60397,4.07301 1.59149,11.01562 -0.0112,6.21198 -0.15473,7.48868 -1.11417,9.90742 -2.3982,6.04585 -7.85774,12.61705 -15.14922,18.23385 l -3.01503,2.32255 z"
         id="path78"
         transform="scale(0.26458333)" /></g></g><g
     inkscape:groupmode="layer"
     id="layer5"
     inkscape:label="Nome / Turma"><text
       xml:space="preserve"
       style="font-style:normal;font-variant:normal;font-weight:normal;font-stretch:normal;font-size:6.67591px;font-family:Amiri;-inkscape-font-specification:Amiri;text-align:start;writing-mode:lr-tb;direction:ltr;text-anchor:start;fill:#000000;fill-opacity:1;stroke-width:0.333795"
       x="11.090409"
       y="177.98718"
       id="text79"
       transform="scale(0.61438207,1.6276517)"><tspan
         sodipodi:role="line"
         id="tspan79"
         style="fill:#000000;fill-opacity:1;stroke-width:0.333795"
         x="11.090409"
         y="177.98718">Feito Por: Ana Lygia e Karina - 2ºTINF</tspan></text></g></svg>
